<svg width="1920" height="500" viewBox="0 0 1920 500" fill="none" xmlns="http://www.w3.org/2000/svg">
<path id="brightenBlue" d="M0.295573 486.424C0.295573 493.788 6.26511 499.758 13.6289 499.758C20.9927 499.758 26.9622 493.788 26.9622 486.424C26.9622 479.06 20.9927 473.091 13.6289 473.091C6.26511 473.091 0.295573 479.06 0.295573 486.424ZM1893.49 13.5615C1893.49 20.9253 1899.46 26.8949 1906.83 26.8949C1914.19 26.8949 1920.16 20.9253 1920.16 13.5615C1920.16 6.19773 1914.19 0.22819 1906.83 0.22819C1899.46 0.22819 1893.49 6.19773 1893.49 13.5615ZM13.5937 488.924C540.451 496.342 863.722 470.5 1066.91 427.502C1270.15 384.493 1353.59 324.25 1400.36 262.63C1423.66 231.938 1437.8 200.944 1453.05 172.172C1468.34 143.337 1484.81 116.557 1512.85 93.5514C1568.99 47.5042 1672.16 16.0615 1906.83 16.0615V11.0615C1672.07 11.0615 1567.29 42.4352 1509.68 89.6856C1480.86 113.329 1464.02 140.818 1448.64 169.83C1433.22 198.905 1419.35 229.337 1396.38 259.607C1350.6 319.912 1268.47 379.738 1065.88 422.61C863.239 465.492 540.412 491.341 13.6641 483.925L13.5937 488.924Z" fill="#5DB7D0"/>
</svg>
