<svg width="1920" height="608" viewBox="0 0 1920 608" fill="none" xmlns="http://www.w3.org/2000/svg">
<path id="brightenPink" d="M0.295573 13.873C0.295573 21.2368 6.26511 27.2064 13.6289 27.2064C20.9927 27.2064 26.9622 21.2368 26.9622 13.873C26.9622 6.50925 20.9927 0.539714 13.6289 0.539714C6.26511 0.539714 0.295573 6.50925 0.295573 13.873ZM1896.34 594.268C1896.34 601.632 1902.31 607.602 1909.67 607.602C1917.04 607.602 1923.01 601.632 1923.01 594.268C1923.01 586.904 1917.04 580.935 1909.67 580.935C1902.31 580.935 1896.34 586.904 1896.34 594.268ZM13.6289 16.373C477.654 16.373 718.051 161.184 959.2 306.213C1200.58 451.383 1442.72 596.768 1909.67 596.768V591.768C1444.1 591.768 1202.92 446.955 961.777 301.928C720.396 156.76 479.038 11.373 13.6289 11.373V16.373Z" fill="#BD3795"/>
</svg>
