<svg width="1920" height="103" viewBox="0 0 1920 103" fill="none" xmlns="http://www.w3.org/2000/svg">
<path id="brightenPurple" d="M1893.49 13.9097C1893.49 21.2735 1899.46 27.243 1906.83 27.243C1914.19 27.243 1920.16 21.2735 1920.16 13.9097C1920.16 6.54587 1914.19 0.576335 1906.83 0.576335C1899.46 0.576335 1893.49 6.54587 1893.49 13.9097ZM0.154948 13.9098C0.154948 21.2736 6.12448 27.2431 13.4883 27.2431C20.8521 27.2431 26.8216 21.2736 26.8216 13.9098C26.8216 6.54601 20.8521 0.576477 13.4883 0.576477C6.12448 0.576477 0.154948 6.54601 0.154948 13.9098ZM1905.59 11.7401C1880.39 26.1674 1834.6 38.86 1773.07 49.7203C1711.65 60.5624 1634.85 69.5291 1547.88 76.6459C1373.94 90.8789 1159.45 97.7005 946.103 97.3607C732.755 97.021 520.605 89.5199 351.354 75.1174C266.725 67.9157 192.864 58.992 134.961 48.3852C106.008 43.0816 81.0834 37.3641 60.8156 31.2432C40.5098 25.1108 25.0357 18.6191 14.8772 11.8312L12.0993 15.9885C22.8706 23.1858 38.9007 29.8479 59.3701 36.0296C79.8775 42.2229 104.999 47.9799 134.06 53.3034C192.184 63.9506 266.221 72.8909 350.93 80.0994C520.358 94.517 732.654 102.021 946.095 102.361C1159.54 102.701 1374.17 95.8767 1548.29 81.6292C1635.34 74.5058 1712.3 65.5235 1773.94 54.6442C1835.47 43.7831 1882.04 30.982 1908.07 16.0793L1905.59 11.7401Z" fill="#8100E3"/>
</svg>
