<svg width="33" height="33" viewBox="0 0 33 33" fill="none" xmlns="http://www.w3.org/2000/svg">
<path d="M4.31864 1.11158C3.48349 0.276447 2.12947 0.276447 1.29432 1.11158C0.459186 1.94673 0.459186 3.30075 1.29432 4.1359L13.6436 16.4852L1.29445 28.8344C0.459314 29.6695 0.459314 31.0236 1.29445 31.8587C2.1296 32.6938 3.48362 32.6938 4.31875 31.8587L16.6679 19.5094L29.0172 31.8587C29.8522 32.6938 31.2064 32.6938 32.0414 31.8587C32.8765 31.0236 32.8765 29.6695 32.0414 28.8344L19.6922 16.4852L32.0417 4.1359C32.8767 3.30075 32.8767 1.94673 32.0417 1.11158C31.2066 0.276447 29.8525 0.276447 29.0174 1.11158L16.6679 13.4609L4.31864 1.11158Z" fill="black"/>
</svg>
