<svg width="1920" height="103" viewBox="0 0 1920 103" fill="none" xmlns="http://www.w3.org/2000/svg">
<path id="darkPurple" d="M1893.49 13.8691C1893.49 21.2329 1899.46 27.2025 1906.83 27.2025C1914.19 27.2025 1920.16 21.2329 1920.16 13.8691C1920.16 6.50534 1914.19 0.535807 1906.83 0.535807C1899.46 0.535807 1893.49 6.50534 1893.49 13.8691ZM0.154948 13.8693C0.154948 21.2331 6.12448 27.2026 13.4883 27.2026C20.8521 27.2026 26.8216 21.2331 26.8216 13.8693C26.8216 6.50549 20.8521 0.53595 13.4883 0.53595C6.12448 0.53595 0.154948 6.50549 0.154948 13.8693ZM1905.59 11.6995C1880.39 26.1269 1834.6 38.8195 1773.07 49.6798C1711.65 60.5219 1634.85 69.4886 1547.88 76.6054C1373.94 90.8383 1159.45 97.6599 946.103 97.3202C732.755 96.9804 520.605 89.4794 351.354 75.0768C266.725 67.8752 192.864 58.9515 134.961 48.3447C106.008 43.0411 81.0834 37.3235 60.8156 31.2026C40.5098 25.0703 25.0357 18.5786 14.8772 11.7906L12.0993 15.9479C22.8706 23.1453 38.9007 29.8073 59.3701 35.9891C79.8775 42.1824 104.999 47.9394 134.06 53.2628C192.184 63.9101 266.221 72.8504 350.93 80.0588C520.358 94.4765 732.654 101.98 946.095 102.32C1159.54 102.66 1374.17 95.8362 1548.29 81.5887C1635.34 74.4652 1712.3 65.483 1773.94 54.6037C1835.47 43.7426 1882.04 30.9414 1908.07 16.0388L1905.59 11.6995Z" fill="#541585"/>
</svg>
