<svg width="2030" height="1083" viewBox="0 0 2030 1083" fill="none" xmlns="http://www.w3.org/2000/svg">
<g id="Welcome Screen" clip-path="url(#clip0_1018_395)" filter="url(#filter0_d_1018_395)">
<rect width="1920" height="973" transform="translate(42 42)" fill="black"/>
<path id="brightenPink" d="M42.2956 348.873C42.2956 356.237 48.2651 362.206 55.6289 362.206C62.9927 362.206 68.9622 356.237 68.9622 348.873C68.9622 341.509 62.9927 335.54 55.6289 335.54C48.2651 335.54 42.2956 341.509 42.2956 348.873ZM1938.34 929.268C1938.34 936.632 1944.31 942.602 1951.67 942.602C1959.04 942.602 1965.01 936.632 1965.01 929.268C1965.01 921.904 1959.04 915.935 1951.67 915.935C1944.31 915.935 1938.34 921.904 1938.34 929.268ZM55.6289 351.373C519.654 351.373 760.051 496.184 1001.2 641.213C1242.58 786.383 1484.72 931.768 1951.67 931.768V926.768C1486.1 926.768 1244.92 781.955 1003.78 636.928C762.396 491.76 521.038 346.373 55.6289 346.373V351.373Z" fill="#BD3795"/>
<path id="brightenBlue" d="M42.2956 915.424C42.2956 922.788 48.2651 928.758 55.6289 928.758C62.9927 928.758 68.9622 922.788 68.9622 915.424C68.9622 908.06 62.9927 902.091 55.6289 902.091C48.2651 902.091 42.2956 908.06 42.2956 915.424ZM1935.49 442.562C1935.49 449.925 1941.46 455.895 1948.83 455.895C1956.19 455.895 1962.16 449.925 1962.16 442.562C1962.16 435.198 1956.19 429.228 1948.83 429.228C1941.46 429.228 1935.49 435.198 1935.49 442.562ZM55.5937 917.924C582.451 925.342 905.722 899.5 1108.91 856.502C1312.15 813.493 1395.59 753.25 1442.36 691.63C1465.66 660.938 1479.8 629.944 1495.05 601.172C1510.34 572.337 1526.81 545.557 1554.85 522.551C1610.99 476.504 1714.16 445.062 1948.83 445.062V440.062C1714.07 440.062 1609.29 471.435 1551.68 518.686C1522.86 542.329 1506.02 569.818 1490.64 598.83C1475.22 627.905 1461.35 658.337 1438.38 688.607C1392.6 748.912 1310.47 808.738 1107.88 851.61C905.239 894.492 582.412 920.341 55.6641 912.925L55.5937 917.924Z" fill="#5DB7D0"/>
<path id="darkPurple" d="M1935.49 205.869C1935.49 213.233 1941.46 219.202 1948.83 219.202C1956.19 219.202 1962.16 213.233 1962.16 205.869C1962.16 198.505 1956.19 192.536 1948.83 192.536C1941.46 192.536 1935.49 198.505 1935.49 205.869ZM42.1549 205.869C42.1549 213.233 48.1245 219.203 55.4883 219.203C62.8521 219.203 68.8216 213.233 68.8216 205.869C68.8216 198.505 62.8521 192.536 55.4883 192.536C48.1245 192.536 42.1549 198.505 42.1549 205.869ZM1947.59 203.7C1922.39 218.127 1876.6 230.82 1815.07 241.68C1753.65 252.522 1676.85 261.489 1589.88 268.605C1415.94 282.838 1201.45 289.66 988.103 289.32C774.755 288.98 562.605 281.479 393.354 267.077C308.725 259.875 234.864 250.951 176.961 240.345C148.008 235.041 123.083 229.324 102.816 223.203C82.5098 217.07 67.0357 210.579 56.8772 203.791L54.0993 207.948C64.8706 215.145 80.9007 221.807 101.37 227.989C121.877 234.182 146.999 239.939 176.06 245.263C234.184 255.91 308.221 264.85 392.93 272.059C562.358 286.477 774.654 293.98 988.095 294.32C1201.54 294.66 1416.17 287.836 1590.29 273.589C1677.34 266.465 1754.3 257.483 1815.94 246.604C1877.47 235.743 1924.04 222.941 1950.07 208.039L1947.59 203.7Z" fill="#541585"/>
<path id="brightenPurple" d="M1935.49 262.91C1935.49 270.273 1941.46 276.243 1948.83 276.243C1956.19 276.243 1962.16 270.273 1962.16 262.91C1962.16 255.546 1956.19 249.576 1948.83 249.576C1941.46 249.576 1935.49 255.546 1935.49 262.91ZM42.1549 262.91C42.1549 270.274 48.1245 276.243 55.4883 276.243C62.8521 276.243 68.8216 270.274 68.8216 262.91C68.8216 255.546 62.8521 249.576 55.4883 249.576C48.1245 249.576 42.1549 255.546 42.1549 262.91ZM1947.59 260.74C1922.39 275.167 1876.6 287.86 1815.07 298.72C1753.65 309.562 1676.85 318.529 1589.88 325.646C1415.94 339.879 1201.45 346.7 988.103 346.361C774.755 346.021 562.605 338.52 393.354 324.117C308.725 316.916 234.864 307.992 176.961 297.385C148.008 292.082 123.083 286.364 102.816 280.243C82.5098 274.111 67.0357 267.619 56.8772 260.831L54.0993 264.988C64.8706 272.186 80.9007 278.848 101.37 285.03C121.877 291.223 146.999 296.98 176.06 302.303C234.184 312.951 308.221 321.891 392.93 329.099C562.358 343.517 774.654 351.021 988.095 351.361C1201.54 351.701 1416.17 344.877 1590.29 330.629C1677.34 323.506 1754.3 314.524 1815.94 303.644C1877.47 292.783 1924.04 279.982 1950.07 265.079L1947.59 260.74Z" fill="#8100E3"/>
<path id="brightenRed" d="M42.0651 149.602C42.0651 156.966 48.0346 162.935 55.3984 162.935C62.7622 162.935 68.7318 156.966 68.7318 149.602C68.7318 142.238 62.7622 136.269 55.3984 136.269C48.0346 136.269 42.0651 142.238 42.0651 149.602ZM55.0128 152.072C195.719 174.042 319.728 178.564 410.097 161.788C500.281 145.046 558.169 106.785 564.033 42.2261L559.053 41.7739C553.517 102.72 498.926 140.212 409.184 156.872C319.627 173.497 196.264 169.067 55.7841 147.132L55.0128 152.072Z" fill="#C5186E"/>
</g>
<defs>
<filter id="filter0_d_1018_395" x="0.491548" y="0.491548" width="2029.23" height="1082.23" filterUnits="userSpaceOnUse" color-interpolation-filters="sRGB">
<feFlood flood-opacity="0" result="BackgroundImageFix"/>
<feColorMatrix in="SourceAlpha" type="matrix" values="0 0 0 0 0 0 0 0 0 0 0 0 0 0 0 0 0 0 127 0" result="hardAlpha"/>
<feOffset dx="13.1079" dy="13.1079"/>
<feGaussianBlur stdDeviation="27.3082"/>
<feComposite in2="hardAlpha" operator="out"/>
<feColorMatrix type="matrix" values="0 0 0 0 0 0 0 0 0 0 0 0 0 0 0 0 0 0 0.5 0"/>
<feBlend mode="normal" in2="BackgroundImageFix" result="effect1_dropShadow_1018_395"/>
<feBlend mode="normal" in="SourceGraphic" in2="effect1_dropShadow_1018_395" result="shape"/>
</filter>
<clipPath id="clip0_1018_395">
<rect width="1920" height="973" fill="white" transform="translate(42 42)"/>
</clipPath>
</defs>
</svg>
