<svg width="211" height="151" viewBox="0 0 211 151" fill="none" xmlns="http://www.w3.org/2000/svg">
<path fill-rule="evenodd" clip-rule="evenodd" d="M35.933 0.260742C31.6793 0.260742 27.5999 1.91652 24.5921 4.86383C21.5843 7.81113 19.8945 11.8085 19.8945 15.9767V110.272C19.8945 118.947 27.0798 125.988 35.933 125.988H150.493C154.747 125.988 158.827 124.332 161.834 121.385C164.842 118.438 166.532 114.44 166.532 110.272V33.9377C166.532 29.7696 164.842 25.7722 161.834 22.8249C158.827 19.8776 154.747 18.2218 150.493 18.2218H90.922C90.5663 18.2218 90.2155 18.1406 89.8973 17.9848C89.5792 17.8289 89.3025 17.6026 89.089 17.3237L80.8407 6.54711C77.8163 2.59568 73.0506 0.260742 68.0099 0.260742H35.933ZM60.405 70.1222C64.943 70.1222 68.6218 66.5174 68.6218 62.0707C68.6218 57.624 64.943 54.0192 60.405 54.0192C55.8671 54.0192 52.1883 57.624 52.1883 62.0707C52.1883 66.5174 55.8671 70.1222 60.405 70.1222ZM126.03 70.1222C130.568 70.1222 134.247 66.5174 134.247 62.0707C134.247 57.624 130.568 54.0192 126.03 54.0192C121.492 54.0192 117.813 57.624 117.813 62.0707C117.813 66.5174 121.492 70.1222 126.03 70.1222Z" fill="#667C21"/>
<path fill-rule="evenodd" clip-rule="evenodd" d="M35.9388 24.5508C31.4448 24.5508 26.3327 24.5508 20.5774 24.5508C19.9593 24.5508 20.4799 24.5508 19.8946 24.5515L19.8945 111.197C19.8945 119.363 27.0797 125.991 35.933 125.991H150.493C154.747 125.991 158.827 124.432 161.834 121.658C164.842 118.883 166.532 115.121 166.532 111.197V39.3441C166.532 35.4207 164.842 31.6579 161.834 28.8837C158.827 26.1094 154.747 24.5508 150.493 24.5508H90.9219C90.5662 24.5508 90.1769 24.5508 89.8264 24.5508C89.4759 24.5508 89.2963 24.5508 89 24.5508H80.9172C75.8373 24.551 73.2567 24.5508 68.216 24.5508H35.9388ZM60.4179 70.1216C64.9559 70.1216 68.6346 66.5168 68.6346 62.0701C68.6346 57.6234 64.9559 54.0186 60.4179 54.0186C55.8799 54.0186 52.2011 57.6234 52.2011 62.0701C52.2011 66.5168 55.8799 70.1216 60.4179 70.1216ZM126.043 70.1216C130.581 70.1216 134.26 66.5168 134.26 62.0701C134.26 57.6234 130.581 54.0186 126.043 54.0186C121.505 54.0186 117.826 57.6234 117.826 62.0701C117.826 66.5168 121.505 70.1216 126.043 70.1216Z" fill="#A4C639"/>
<rect width="16.1294" height="50.242" rx="8.06469" transform="matrix(-0.806495 -0.59124 0.606844 -0.794821 179.543 87.8584)" fill="#A4C639"/>
<rect x="119.383" y="112.893" width="16.2459" height="37.8685" rx="8.12293" fill="#A4C639"/>
<rect x="55.6875" y="112.893" width="16.2459" height="37.8685" rx="8.12293" fill="#A4C639"/>
<rect x="0.03125" y="68.9473" width="16.2459" height="49.8723" rx="8.12293" fill="#A4C639"/>
</svg>
