<svg width="57" height="50" viewBox="0 0 57 50" fill="none" xmlns="http://www.w3.org/2000/svg">
<path fill-rule="evenodd" clip-rule="evenodd" d="M6.46109 0.838867C4.84593 0.838867 3.29691 1.48049 2.15481 2.62259C1.01272 3.76468 0.371094 5.3137 0.371094 6.92887V43.4689C0.371094 46.8305 3.09941 49.5589 6.46109 49.5589H49.9611C51.5763 49.5589 53.1253 48.9172 54.2674 47.7752C55.4095 46.6331 56.0511 45.084 56.0511 43.4689V13.8889C56.0511 12.2737 55.4095 10.7247 54.2674 9.58259C53.1253 8.44049 51.5763 7.79887 49.9611 7.79887H27.3411C27.206 7.79887 27.0728 7.76742 26.952 7.70702C26.8312 7.64662 26.7261 7.55892 26.6451 7.45087L23.5131 3.27487C22.3647 1.74367 20.5551 0.838867 18.6411 0.838867H6.46109ZM15.7552 27.9107C17.4783 27.9107 18.8752 26.5138 18.8752 24.7907C18.8752 23.0676 17.4783 21.6707 15.7552 21.6707C14.032 21.6707 12.6352 23.0676 12.6352 24.7907C12.6352 26.5138 14.032 27.9107 15.7552 27.9107ZM40.6739 27.9107C42.397 27.9107 43.7939 26.5138 43.7939 24.7907C43.7939 23.0676 42.397 21.6707 40.6739 21.6707C38.9508 21.6707 37.5539 23.0676 37.5539 24.7907C37.5539 26.5138 38.9508 27.9107 40.6739 27.9107Z" fill="#667C21"/>
<path fill-rule="evenodd" clip-rule="evenodd" d="M6.46721 10.25C4.76079 10.25 2.81965 10.25 0.634277 10.25C0.3996 10.25 0.597275 10.25 0.375009 10.2503L0.375 43.826C0.375 46.9903 3.10331 49.5584 6.46499 49.5584H49.965C51.5801 49.5584 53.1292 48.9545 54.2713 47.8794C55.4134 46.8044 56.055 45.3463 56.055 43.826V15.9825C56.055 14.4621 55.4134 13.0041 54.2713 11.929C53.1292 10.854 51.5801 10.25 49.965 10.25H27.345C27.2099 10.25 27.0621 10.25 26.929 10.25C26.7959 10.25 26.7277 10.25 26.6152 10.25H23.546C21.6171 10.2501 20.6373 10.25 18.7233 10.25H6.46721ZM15.7587 27.9097C17.4819 27.9097 18.8787 26.5128 18.8787 24.7897C18.8787 23.0666 17.4819 21.6697 15.7587 21.6697C14.0356 21.6697 12.6387 23.0666 12.6387 24.7897C12.6387 26.5128 14.0356 27.9097 15.7587 27.9097ZM40.6775 27.9097C42.4006 27.9097 43.7975 26.5128 43.7975 24.7897C43.7975 23.0666 42.4006 21.6697 40.6775 21.6697C38.9544 21.6697 37.5575 23.0666 37.5575 24.7897C37.5575 26.5128 38.9544 27.9097 40.6775 27.9097Z" fill="#A4C639"/>
</svg>
