<svg width="82" height="69" viewBox="0 0 82 69" fill="none" xmlns="http://www.w3.org/2000/svg">
<rect x="1.60938" y="35.0723" width="78.5602" height="22.7962" stroke="#A4C639" stroke-width="2.25"/>
<path d="M50.1229 18.3645V19.4895H51.2479H64.9586V34.4962H16.8086V2.03906H50.1229V18.3645ZM52.3729 17.2395V3.89576L56.8991 9.04003L63.6909 17.2395H52.3729Z" stroke="#A4C639" stroke-width="2.25"/>
<rect x="16.8086" y="58.3193" width="48.1219" height="9.08701" stroke="#A4C639" stroke-width="2.25"/>
<path d="M23.9651 52.9473H20.7026L25.6737 38.5473H29.5972L34.5612 52.9473H31.2987L27.6917 41.8379H27.5792L23.9651 52.9473ZM23.7612 47.2871H31.4675V49.6637H23.7612V47.2871ZM36.2944 52.9473V38.5473H41.9757C43.0679 38.5473 43.9983 38.7559 44.7671 39.173C45.5358 39.5855 46.1218 40.1598 46.5249 40.8957C46.9327 41.627 47.1366 42.4707 47.1366 43.427C47.1366 44.3832 46.9304 45.227 46.5179 45.9582C46.1054 46.6895 45.5077 47.259 44.7249 47.6668C43.9468 48.0746 43.0046 48.2785 41.8983 48.2785H38.2772V45.8387H41.4062C41.9921 45.8387 42.4749 45.7379 42.8546 45.5363C43.239 45.3301 43.5249 45.0465 43.7124 44.6855C43.9046 44.3199 44.0007 43.9004 44.0007 43.427C44.0007 42.9488 43.9046 42.5316 43.7124 42.1754C43.5249 41.8145 43.239 41.5355 42.8546 41.3387C42.4702 41.1371 41.9827 41.0363 41.3921 41.0363H39.339V52.9473H36.2944ZM49.1142 52.9473V38.5473H52.1587V44.8965H52.3485L57.5306 38.5473H61.1798L55.836 44.9949L61.2431 52.9473H57.6009L53.6563 47.027L52.1587 48.8551V52.9473H49.1142Z" fill="white"/>
</svg>
