<svg width="558" height="488" viewBox="0 0 558 488" fill="none" xmlns="http://www.w3.org/2000/svg">
<g opacity="0.2">
<path fill-rule="evenodd" clip-rule="evenodd" d="M61.4379 0.484375C45.2865 0.484375 29.7966 6.90061 18.3759 18.3216C6.95516 29.7425 0.539063 45.2327 0.539062 61.3844V426.784C0.539062 460.401 27.8217 487.684 61.4379 487.684H496.429C512.581 487.684 528.07 481.268 539.491 469.847C550.912 458.426 557.328 442.936 557.328 426.784V130.984C557.328 114.833 550.912 99.3425 539.491 87.9216C528.07 76.5006 512.581 70.0844 496.429 70.0844H270.234C268.883 70.0844 267.551 69.7699 266.343 69.1659C265.135 68.5619 264.084 67.6849 263.274 66.6044L231.954 24.8444C220.471 9.53238 202.375 0.484375 183.235 0.484375H61.4379ZM154.385 271.205C171.616 271.205 185.584 257.236 185.584 240.005C185.584 222.773 171.616 208.805 154.385 208.805C137.154 208.805 123.186 222.773 123.186 240.005C123.186 257.236 137.154 271.205 154.385 271.205ZM403.56 271.205C420.791 271.205 434.759 257.236 434.759 240.005C434.759 222.773 420.791 208.805 403.56 208.805C386.329 208.805 372.36 222.773 372.36 240.005C372.36 257.236 386.329 271.205 403.56 271.205Z" fill="#667C21"/>
<path fill-rule="evenodd" clip-rule="evenodd" d="M61.4951 94.5947C44.4313 94.5947 25.0202 94.5947 3.16694 94.5947C0.820215 94.5947 2.79692 94.5948 0.574311 94.5976L0.574219 430.354C0.574219 461.998 27.8568 487.679 61.4729 487.679H496.464C512.615 487.679 528.106 481.64 539.527 470.889C550.947 460.139 557.364 445.558 557.364 430.354V151.92C557.364 136.716 550.947 122.135 539.527 111.385C528.106 100.634 512.615 94.5947 496.464 94.5947H270.269C268.918 94.5947 267.44 94.5947 266.109 94.5947C264.778 94.5947 264.096 94.5947 262.971 94.5947H232.28C212.991 94.5955 203.193 94.5947 184.053 94.5947H61.4951ZM154.425 271.194C171.656 271.194 185.625 257.226 185.625 239.994C185.625 222.763 171.656 208.794 154.425 208.794C137.194 208.794 123.226 222.763 123.226 239.994C123.226 257.226 137.194 271.194 154.425 271.194ZM403.6 271.194C420.831 271.194 434.8 257.226 434.8 239.994C434.8 222.763 420.831 208.794 403.6 208.794C386.369 208.794 372.401 222.763 372.401 239.994C372.401 257.226 386.369 271.194 403.6 271.194Z" fill="#A4C639"/>
</g>
</svg>
