<svg width="279" height="244" viewBox="0 0 279 244" fill="none" xmlns="http://www.w3.org/2000/svg">
<g opacity="0.2">
<path fill-rule="evenodd" clip-rule="evenodd" d="M30.5353 0.0361328C22.4596 0.0361328 14.7147 3.24425 9.00435 8.95473C3.29399 14.6652 0.0859375 22.4103 0.0859375 30.4861L0.0859375 213.186C0.0859375 229.995 13.7273 243.636 30.5353 243.636H248.031C256.107 243.636 263.851 240.428 269.562 234.718C275.272 229.007 278.48 221.262 278.48 213.186V65.2861C278.48 57.2103 275.272 49.4652 269.562 43.7547C263.851 38.0443 256.107 34.8361 248.031 34.8361L134.933 34.8361C134.258 34.8361 133.592 34.6789 132.988 34.3769C132.384 34.0749 131.858 33.6364 131.453 33.0961L115.794 12.2161C110.052 4.56013 101.004 0.0361328 91.4341 0.0361328L30.5353 0.0361328ZM77.0092 135.396C85.6246 135.396 92.6088 128.412 92.6088 119.796C92.6088 111.181 85.6246 104.196 77.0092 104.196C68.3937 104.196 61.4095 111.181 61.4095 119.796C61.4095 128.412 68.3937 135.396 77.0092 135.396ZM201.596 135.396C210.212 135.396 217.196 128.412 217.196 119.796C217.196 111.181 210.212 104.196 201.596 104.196C192.981 104.196 185.997 111.181 185.997 119.796C185.997 128.412 192.981 135.396 201.596 135.396Z" fill="#667C21"/>
<path fill-rule="evenodd" clip-rule="evenodd" d="M30.5659 47.0928C22.034 47.0928 12.3284 47.0928 1.40183 47.0928C0.228467 47.0928 1.21682 47.0928 0.105515 47.0942L0.105469 214.973C0.105469 230.794 13.7468 243.635 30.5548 243.635L248.05 243.635C256.126 243.635 263.871 240.615 269.582 235.24C275.292 229.865 278.5 222.574 278.5 214.973V75.7552C278.5 68.1534 275.292 60.8631 269.582 55.4878C263.871 50.1126 256.126 47.0928 248.05 47.0928L134.953 47.0928C134.277 47.0928 133.538 47.0928 132.873 47.0928C132.207 47.0928 131.866 47.0928 131.304 47.0928L115.958 47.0928C106.314 47.0932 101.415 47.0928 91.8449 47.0928L30.5659 47.0928ZM77.0299 135.395C85.6453 135.395 92.6296 128.41 92.6296 119.795C92.6296 111.179 85.6453 104.195 77.0299 104.195C68.4144 104.195 61.4302 111.179 61.4302 119.795C61.4302 128.41 68.4144 135.395 77.0299 135.395ZM201.617 135.395C210.233 135.395 217.217 128.41 217.217 119.795C217.217 111.179 210.233 104.195 201.617 104.195C193.002 104.195 186.017 111.179 186.017 119.795C186.017 128.41 193.002 135.395 201.617 135.395Z" fill="#A4C639"/>
</g>
</svg>
