<svg width="14" height="6" viewBox="0 0 14 6" fill="none" xmlns="http://www.w3.org/2000/svg">
<path d="M7.69194 5.46433C7.50442 5.59159 7.25011 5.66309 6.98494 5.66309C6.71978 5.66309 6.46547 5.59159 6.27794 5.46433L0.277944 1.39127C0.0957855 1.26324 -0.00500879 1.09176 -0.00273037 0.91377C-0.00045195 0.735779 0.104718 0.565516 0.290126 0.439653C0.475534 0.31379 0.726347 0.242397 0.988544 0.24085C1.25074 0.239304 1.50334 0.307727 1.69195 0.431384L6.98494 4.0245L12.2779 0.431384C12.4665 0.307727 12.7191 0.239304 12.9813 0.24085C13.2435 0.242397 13.4944 0.31379 13.6798 0.439653C13.8652 0.565516 13.9703 0.735779 13.9726 0.91377C13.9749 1.09176 13.8741 1.26324 13.6919 1.39127L7.69194 5.46433Z" fill="#D4D4D4"/>
</svg>
