<svg width="128" height="56" viewBox="0 0 128 56" fill="none" xmlns="http://www.w3.org/2000/svg">
<g clip-path="url(#clip0_452_119)">
<path d="M25.7772 40.0361H24.7674L16.9508 21.1117C16.502 20.0645 16.1405 19.142 15.8662 18.3441L15.4922 21.1865L12.4254 41.4199H10.5928L15.006 14.4545H16.0532L24.3934 34.2765C24.8173 35.1991 25.1539 36.0717 25.4032 36.8945C25.478 36.6203 25.8645 35.7601 26.5626 34.3139L35.8752 14.4545H36.885L40.9616 41.4199H39.0916L36.1744 21.1117C35.975 19.8401 35.8752 18.8802 35.8752 18.2319C35.8503 18.2569 35.788 18.3815 35.6882 18.6059C35.6134 18.8054 35.4638 19.1545 35.2394 19.6531C35.04 20.1269 34.828 20.6255 34.6036 21.1491L25.7772 40.0361ZM48.3081 41.4199V14.6789H50.1033V41.4199H48.3081ZM61.6795 18.9425L61.7543 22.1215V41.4199H59.9591V14.4545H60.7819L78.3973 34.7627C79.5941 36.1839 80.5166 37.3184 81.1649 38.1661C81.0651 36.9693 81.0153 35.598 81.0153 34.0521V14.6789H82.8105V41.6443H81.9877L64.0357 20.9621C62.789 19.5409 61.9911 18.5935 61.6421 18.1197L61.6795 18.9425Z" fill="white"/>
<g filter="url(#filter0_d_452_119)">
<path d="M108.423 27.1188C108.423 31.3775 100.791 35.5047 98.8975 38.172C98.3518 38.9407 97.7475 39.6127 97.0961 40.1701C95.731 41.3383 89.4854 49.6673 87.8122 49.6673C85.3405 49.6673 94.5183 43.6465 92.8294 41.2669C90.9362 38.5996 93.643 32.1144 93.643 27.8557C94.1853 23.8766 92.8765 9.94765 95.5413 8.84431C98.3889 7.66532 96.709 8.84431 99.4737 8.84431C102.285 8.84431 107.228 12.3439 108.966 15.3288C109.869 16.8796 111.949 18.129 115.203 21.666C113.847 22.845 108.423 25.627 108.423 27.1188Z" fill="#D9D9D9" fill-opacity="0.1" shape-rendering="crispEdges"/>
</g>
<path d="M94.9981 21.5198H86.7266L86.8622 8.55078L94.9981 21.5198Z" fill="#9A9A9A" stroke="url(#paint0_linear_452_119)" stroke-width="0.033"/>
<path d="M94.9992 21.5198L86.8633 8.55078H103.135L94.9992 21.5198Z" fill="#DFDFDF" stroke="url(#paint1_linear_452_119)" stroke-width="0.033"/>
<path d="M105.034 21.5198H95L103.136 8.55078L105.034 21.5198Z" fill="#CACACA" stroke="url(#paint2_linear_452_119)" stroke-width="0.033"/>
<path d="M105.031 21.5198L103.133 8.55078L115.066 21.5198H105.031Z" fill="#F2F2F2" stroke="url(#paint3_linear_452_119)" stroke-width="0.033"/>
<path d="M86.7266 21.5195L86.8622 52.321L94.9981 21.5195H86.7266Z" fill="#6F6F6F" stroke="url(#paint4_linear_452_119)" stroke-width="0.033"/>
<path d="M94.9992 21.5195L86.8633 52.321L105.034 21.5195H94.9992Z" fill="#9F9F9F" stroke="url(#paint5_linear_452_119)" stroke-width="0.033"/>
<path d="M86.8633 52.321L115.068 21.5195H105.034L86.8633 52.321Z" fill="#DFDFDF" stroke="url(#paint6_linear_452_119)" stroke-width="0.033"/>
<path d="M86.8621 8.55078L103.134 8.55078M86.8621 8.55078L86.7266 21.5198M86.8621 8.55078L94.998 21.5198M86.8622 52.3098L115.067 21.5198M86.8622 52.3098L86.7266 21.5198M86.8622 52.3098L94.998 21.5198M86.8622 52.3098L105.032 21.5198L103.134 8.55078M115.067 21.5198C115.067 21.5198 103.27 8.69816 103.134 8.55078M115.067 21.5198H86.7266M103.134 8.55078L94.998 21.5198" stroke="url(#paint7_linear_452_119)" stroke-width="0.66"/>
</g>
<defs>
<filter id="filter0_d_452_119" x="79.6207" y="-2.96569" width="53.0284" height="66.5587" filterUnits="userSpaceOnUse" color-interpolation-filters="sRGB">
<feFlood flood-opacity="0" result="BackgroundImageFix"/>
<feColorMatrix in="SourceAlpha" type="matrix" values="0 0 0 0 0 0 0 0 0 0 0 0 0 0 0 0 0 0 127 0" result="hardAlpha"/>
<feOffset dx="4.84" dy="1.32"/>
<feGaussianBlur stdDeviation="6.303"/>
<feComposite in2="hardAlpha" operator="out"/>
<feColorMatrix type="matrix" values="0 0 0 0 1 0 0 0 0 1 0 0 0 0 1 0 0 0 1 0"/>
<feBlend mode="normal" in2="BackgroundImageFix" result="effect1_dropShadow_452_119"/>
<feBlend mode="normal" in="SourceGraphic" in2="effect1_dropShadow_452_119" result="shape"/>
</filter>
<linearGradient id="paint0_linear_452_119" x1="90.8623" y1="8.55078" x2="90.8623" y2="21.5198" gradientUnits="userSpaceOnUse">
<stop stop-color="white"/>
<stop offset="1" stop-color="white" stop-opacity="0"/>
</linearGradient>
<linearGradient id="paint1_linear_452_119" x1="94.9992" y1="8.55078" x2="94.9992" y2="21.5198" gradientUnits="userSpaceOnUse">
<stop stop-color="white"/>
<stop offset="1" stop-color="white" stop-opacity="0"/>
</linearGradient>
<linearGradient id="paint2_linear_452_119" x1="100.017" y1="8.55078" x2="100.017" y2="21.5198" gradientUnits="userSpaceOnUse">
<stop stop-color="white"/>
<stop offset="1" stop-color="white" stop-opacity="0"/>
</linearGradient>
<linearGradient id="paint3_linear_452_119" x1="109.099" y1="8.55078" x2="109.099" y2="21.5198" gradientUnits="userSpaceOnUse">
<stop stop-color="white"/>
<stop offset="1" stop-color="white" stop-opacity="0"/>
</linearGradient>
<linearGradient id="paint4_linear_452_119" x1="90.8623" y1="21.5195" x2="90.8623" y2="52.321" gradientUnits="userSpaceOnUse">
<stop stop-color="white"/>
<stop offset="1" stop-color="white" stop-opacity="0"/>
</linearGradient>
<linearGradient id="paint5_linear_452_119" x1="95.9484" y1="21.5195" x2="95.9484" y2="52.321" gradientUnits="userSpaceOnUse">
<stop stop-color="white"/>
<stop offset="1" stop-color="white" stop-opacity="0"/>
</linearGradient>
<linearGradient id="paint6_linear_452_119" x1="100.966" y1="21.5195" x2="100.966" y2="52.321" gradientUnits="userSpaceOnUse">
<stop stop-color="white"/>
<stop offset="1" stop-color="white" stop-opacity="0"/>
</linearGradient>
<linearGradient id="paint7_linear_452_119" x1="100.897" y1="8.55078" x2="100.897" y2="52.3098" gradientUnits="userSpaceOnUse">
<stop stop-color="white"/>
<stop offset="1" stop-color="white" stop-opacity="0"/>
</linearGradient>
<clipPath id="clip0_452_119">
<rect width="128" height="55" fill="white" transform="translate(0 0.558594)"/>
</clipPath>
</defs>
</svg>
