<svg width="49" height="37" viewBox="0 0 49 37" fill="none" xmlns="http://www.w3.org/2000/svg">
<path d="M41.3977 3.76545C38.3287 2.38419 35.0379 1.36655 31.597 0.783692C31.5344 0.772452 31.4718 0.800552 31.4395 0.856792C31.0162 1.59519 30.5473 2.55849 30.2191 3.31563C26.5181 2.77215 22.8363 2.77215 19.2112 3.31563C18.8829 2.54165 18.397 1.59519 17.9719 0.856792C17.9396 0.802432 17.877 0.774332 17.8143 0.783692C14.3753 1.36469 11.0844 2.38233 8.01356 3.76545C7.98698 3.77669 7.96421 3.79545 7.94908 3.81981C1.70684 12.9675 -0.00317491 21.8903 0.835699 30.7025C0.839494 30.7457 0.864167 30.7869 0.89833 30.8131C5.01678 33.7799 9.00621 35.5809 12.9216 36.7747C12.9842 36.7935 13.0506 36.7711 13.0905 36.7203C14.0167 35.4797 14.8423 34.1717 15.5501 32.7959C15.5919 32.7153 15.552 32.6197 15.4666 32.5879C14.1571 32.1007 12.9102 31.5065 11.7107 30.8319C11.6158 30.7775 11.6082 30.6445 11.6955 30.5807C11.9479 30.3951 12.2004 30.2021 12.4414 30.0073C12.485 29.9717 12.5458 29.9641 12.597 29.9865C20.4771 33.5157 29.0081 33.5157 36.7954 29.9865C36.8465 29.9623 36.9073 29.9697 36.9529 30.0053C37.1938 30.2003 37.4464 30.3951 37.7006 30.5807C37.7879 30.6445 37.7822 30.7775 37.6873 30.8319C36.4878 31.5197 35.2409 32.1007 33.9294 32.5861C33.8442 32.6179 33.8061 32.7153 33.8478 32.7959C34.571 34.1697 35.3966 35.4779 36.3056 36.7185C36.3436 36.7711 36.412 36.7935 36.4746 36.7747C40.4088 35.5809 44.3983 33.7799 48.5167 30.8131C48.5528 30.7869 48.5757 30.7475 48.5795 30.7045C49.5834 20.5165 46.8978 11.6669 41.4603 3.82167C41.4471 3.79545 41.4244 3.77669 41.3977 3.76545ZM16.7269 25.3369C14.3545 25.3369 12.3996 23.2003 12.3996 20.5765C12.3996 17.9527 14.3165 15.8163 16.7269 15.8163C19.1562 15.8163 21.092 17.9715 21.0541 20.5765C21.0541 23.2003 19.1372 25.3369 16.7269 25.3369ZM32.7261 25.3369C30.3539 25.3369 28.399 23.2003 28.399 20.5765C28.399 17.9527 30.3158 15.8163 32.7261 15.8163C35.1555 15.8163 37.0913 17.9715 37.0534 20.5765C37.0534 23.2003 35.1555 25.3369 32.7261 25.3369Z" fill="white"/>
</svg>
