<svg width="60" height="54" viewBox="0 0 60 54" fill="none" xmlns="http://www.w3.org/2000/svg">
<path fill-rule="evenodd" clip-rule="evenodd" d="M0.492188 49.7142C0.492188 47.7816 2.05885 46.215 3.99139 46.215H56.1878C58.1204 46.215 59.687 47.7816 59.687 49.7142C59.687 51.6468 58.1204 53.2134 56.1878 53.2134H3.99139C2.05885 53.2134 0.492188 51.6468 0.492188 49.7142ZM16.3887 22.7455C17.7552 21.3789 19.9708 21.3789 21.3373 22.7455L25.8614 27.2696V4.32537C25.8614 2.39283 27.428 0.826172 29.3606 0.826172C31.2932 0.826172 32.8598 2.3928 32.8598 4.32537V27.2696L37.3839 22.7455C38.7503 21.3789 40.966 21.3789 42.3325 22.7455C43.6989 24.112 43.6989 26.3276 42.3325 27.6941L31.8349 38.1917C31.1788 38.8478 30.2886 39.2166 29.3606 39.2166C28.4325 39.2166 27.5425 38.8478 26.8863 38.1917L16.3887 27.6941C15.0222 26.3276 15.0222 24.112 16.3887 22.7455Z" fill="#B4C3DC"/>
</svg>
