<svg width="567" height="472" viewBox="0 0 567 472" fill="none" xmlns="http://www.w3.org/2000/svg">
<rect width="567" height="472" fill="#888888"/>
<g filter="url(#filter0_d_595_133)">
<path fill-rule="evenodd" clip-rule="evenodd" d="M345.125 82.7427C338.744 82.7427 332.625 85.2263 328.113 89.6473C323.601 94.0682 321.066 100.064 321.066 106.317V247.76C321.066 260.772 331.844 271.333 345.125 271.333H516.969C523.349 271.333 529.468 268.85 533.98 264.429C538.492 260.008 541.027 254.012 541.027 247.76V133.258C541.027 127.006 538.492 121.01 533.98 116.589C529.468 112.168 523.349 109.684 516.969 109.684H427.61C427.076 109.684 426.55 109.562 426.073 109.329C425.595 109.095 425.18 108.755 424.86 108.337L412.487 92.1722C407.951 86.2451 400.802 82.7427 393.241 82.7427H345.125ZM381.829 187.536C388.636 187.536 394.154 182.129 394.154 175.459C394.154 168.789 388.636 163.382 381.829 163.382C375.022 163.382 369.504 168.789 369.504 175.459C369.504 182.129 375.022 187.536 381.829 187.536ZM480.269 187.536C487.076 187.536 492.594 182.129 492.594 175.459C492.594 168.789 487.076 163.382 480.269 163.382C473.461 163.382 467.943 168.789 467.943 175.459C467.943 182.129 473.461 187.536 480.269 187.536Z" fill="#667C21"/>
<path fill-rule="evenodd" clip-rule="evenodd" d="M345.129 119.178C338.388 119.178 330.72 119.178 322.087 119.178C321.16 119.178 321.941 119.178 321.063 119.179L321.062 249.148C321.062 261.397 331.841 271.338 345.121 271.338H516.964C523.345 271.338 529.465 269 533.976 264.838C538.488 260.677 541.023 255.033 541.023 249.148V141.368C541.023 135.483 538.488 129.839 533.976 125.678C529.465 121.516 523.345 119.178 516.964 119.178H427.606C427.072 119.178 426.488 119.178 425.962 119.178C425.437 119.178 425.167 119.178 424.723 119.178H412.598C404.978 119.179 401.107 119.178 393.546 119.178H345.129ZM381.843 187.534C388.65 187.534 394.168 182.127 394.168 175.457C394.168 168.787 388.65 163.379 381.843 163.379C375.036 163.379 369.518 168.787 369.518 175.457C369.518 182.127 375.036 187.534 381.843 187.534ZM480.282 187.534C487.089 187.534 492.608 182.127 492.608 175.457C492.608 168.787 487.089 163.379 480.282 163.379C473.475 163.379 467.957 168.787 467.957 175.457C467.957 182.127 473.475 187.534 480.282 187.534Z" fill="#A4C639"/>
<rect width="24.194" height="75.3645" rx="12.097" transform="matrix(0.0126196 0.99992 -0.999976 -0.00686821 548.848 197.351)" fill="black"/>
<rect x="470.297" y="251.69" width="24.3693" height="56.8026" rx="12.1846" fill="#A4C639"/>
<rect x="374.758" y="251.69" width="24.3693" height="56.8026" rx="12.1846" fill="#A4C639"/>
<path d="M321.066 246.724H541.032V251.833C541.032 262.603 532.301 271.333 521.531 271.333H340.567C329.797 271.333 321.066 262.603 321.066 251.833V246.724Z" fill="black"/>
<rect x="374.758" y="269.006" width="24.3696" height="32.7934" fill="black"/>
<rect x="470.301" y="271.333" width="24.3696" height="30.4658" fill="black"/>
<rect x="321.066" y="230.139" width="219.959" height="16.5849" fill="#D9D9D9"/>
<path d="M321.066 230.139H361.118L396.948 238.642L431.049 246.724H321.066V230.139Z" fill="black"/>
<path d="M541.055 230.139H501.004L465.173 238.642L431.073 246.724H541.055V230.139Z" fill="black"/>
<path d="M315.538 226.674C322.845 229.937 324.549 239.546 318.809 245.122V245.122C315.488 248.348 310.537 249.226 306.309 247.338L285.88 238.215C280.013 235.595 275.369 230.833 272.896 224.902L264.15 203.924C262.359 199.629 263.376 194.676 266.714 191.433V191.433C272.449 185.862 281.995 187.821 285.072 195.201L290.959 209.322C293.057 214.353 296.997 218.393 301.975 220.616L315.538 226.674Z" fill="black"/>
<path d="M487.887 196.833H538.349C540.834 196.833 542.849 198.848 542.849 201.334V255.13H487.887V196.833Z" fill="#E4E4E4"/>
<path d="M431.347 236.56C430.215 236.015 430.215 234.403 431.347 233.858L440.716 229.342C441.712 228.862 442.867 229.588 442.867 230.693V239.725C442.867 240.83 441.712 241.556 440.716 241.076L431.347 236.56Z" fill="black"/>
<path d="M430.802 236.56C431.933 236.015 431.933 234.403 430.802 233.858L421.432 229.342C420.437 228.862 419.281 229.588 419.281 230.693V239.725C419.281 240.83 420.437 241.556 421.432 241.076L430.802 236.56Z" fill="black"/>
<g filter="url(#filter1_d_595_133)">
<path d="M318.372 181.286C318.372 184.193 315.824 187.796 309.018 191.644C302.428 195.371 292.713 198.816 280.475 201.743C256.041 207.588 222.149 211.229 184.616 211.229C147.083 211.229 113.19 207.588 88.7567 201.743C76.5188 198.816 66.8038 195.371 60.2137 191.644C53.4076 187.796 50.8591 184.193 50.8591 181.286C50.8591 178.38 53.4076 174.777 60.2137 170.928C66.8038 167.202 76.5188 163.756 88.7567 160.829C113.19 154.985 147.083 151.344 184.616 151.344C222.149 151.344 256.041 154.985 280.475 160.829C292.713 163.756 302.428 167.202 309.018 170.928C315.824 174.777 318.372 178.38 318.372 181.286Z" fill="#C2C2C2" stroke="#616161" stroke-width="5.39"/>
<g filter="url(#filter2_d_595_133)">
<path d="M214.29 169.201L218.436 176.345C219.318 177.845 220.552 178.991 221.964 179.873L236.693 154.295H207.234C207.234 155.971 207.675 157.647 208.557 159.146L214.29 169.201Z" fill="#0066DA"/>
<path d="M286.085 179.874C287.496 178.992 288.731 177.845 289.613 176.346L291.288 173.435L299.491 159.235C300.373 157.736 300.814 156.06 300.814 154.384H271.355L277.618 166.732L286.085 179.874Z" fill="#EA4335"/>
<path d="M254.067 124.308L268.797 98.7297C267.385 97.8477 265.71 97.4067 263.946 97.4067H244.101C242.425 97.4067 240.749 97.8477 239.25 98.7297L254.067 124.308Z" fill="#00832D"/>
<path d="M271.352 154.384H236.69L221.961 179.962C223.372 180.844 225.048 181.285 226.812 181.285H281.319C282.995 181.285 284.67 180.844 286.17 179.962L271.352 154.384Z" fill="#2684FC"/>
<path d="M285.991 125.984L272.32 102.347C271.438 100.847 270.203 99.7008 268.792 98.8188L254.062 124.397L271.349 154.473H300.808C300.808 152.797 300.367 151.121 299.485 149.622L285.991 125.984Z" fill="#FFBA00"/>
<path d="M208.468 149.533C207.586 151.032 207.145 152.708 207.145 154.384H236.603L253.89 124.307L239.161 98.7295C237.75 99.6115 236.515 100.758 235.633 102.257L222.05 125.983L208.468 149.533Z" fill="#00AC47"/>
</g>
<g filter="url(#filter3_d_595_133)">
<path d="M168.153 128.718C168.513 147.137 150.488 162.074 128.725 162.074C106.961 162.074 89.2969 147.137 89.2969 128.718C89.2969 110.298 106.927 95.3608 128.708 95.3608C150.488 95.3608 167.878 114.912 168.153 128.718Z" fill="#1E65B0"/>
<path d="M116.548 122.286C112.826 119.782 109.396 118.016 106.361 116.764C104.509 115.94 102.571 115.289 100.547 114.808C95.9164 113.625 93.1381 113.814 93.1381 113.814V113.968H93.121C74.9248 113.968 60.1758 128.889 60.1758 147.273C60.1758 165.658 74.9419 180.596 93.1381 180.596C93.584 180.596 94.0299 180.579 94.4587 180.562V180.596C94.4587 180.596 152.031 182.037 168.495 180.476C184.976 178.915 190.173 166.413 190.173 166.413L116.548 122.286Z" fill="#2F75BC"/>
<path d="M139.152 135.765L66.4531 166.824C66.4531 166.824 75.3883 180.767 93.6702 181.281C94.5277 181.298 95.3852 181.264 96.2427 181.264C97.2374 181.264 98.2321 181.247 99.2268 181.247C100.342 181.247 101.456 181.23 102.571 181.23C103.789 181.23 105.006 181.23 106.224 181.213C107.527 181.213 108.831 181.213 110.134 181.213C111.506 181.213 112.895 181.213 114.267 181.213C115.708 181.213 117.131 181.213 118.572 181.213C120.047 181.213 121.522 181.213 122.98 181.213C124.472 181.213 125.964 181.213 127.456 181.213C128.965 181.213 130.457 181.213 131.966 181.213C133.458 181.213 134.95 181.213 136.442 181.213C137.9 181.213 139.375 181.213 140.833 181.213C142.256 181.213 143.68 181.213 145.103 181.213C146.475 181.213 147.83 181.213 149.202 181.213C150.488 181.213 151.792 181.213 153.078 181.213C154.278 181.213 155.479 181.213 156.679 181.213C157.777 181.213 158.875 181.213 159.955 181.213C160.933 181.213 161.893 181.213 162.87 181.213C163.694 181.213 164.534 181.213 165.357 181.196C166.026 181.196 166.712 181.196 167.381 181.178C168.341 181.161 169.285 181.161 170.228 181.041C171.188 180.921 172.097 180.664 173.023 180.372C174.052 180.046 175.064 179.669 176.059 179.24C177.294 178.709 178.494 178.109 179.66 177.423C180.981 176.651 182.267 175.776 183.45 174.799C184.771 173.718 185.972 172.535 187.052 171.214C188.235 169.774 189.264 168.213 190.105 166.549C190.105 166.532 190.173 166.412 190.173 166.412C190.19 166.412 139.152 135.765 139.152 135.765Z" fill="#3BA6DD"/>
<path d="M193.585 153.636C193.585 158.266 192.315 162.623 190.189 166.43L138.996 135.766C146.508 132.61 153.213 129.849 158.256 127.842C159.508 127.345 162.063 126.916 163.435 126.796C164.395 126.71 165.27 126.676 166.042 126.693C181.288 126.83 193.585 138.835 193.585 153.636Z" fill="#318DCC"/>
</g>
</g>
</g>
<defs>
<filter id="filter0_d_595_133" x="44.1641" y="82.7427" width="508.836" height="258.75" filterUnits="userSpaceOnUse" color-interpolation-filters="sRGB">
<feFlood flood-opacity="0" result="BackgroundImageFix"/>
<feColorMatrix in="SourceAlpha" type="matrix" values="0 0 0 0 0 0 0 0 0 0 0 0 0 0 0 0 0 0 127 0" result="hardAlpha"/>
<feOffset dy="29"/>
<feGaussianBlur stdDeviation="2"/>
<feComposite in2="hardAlpha" operator="out"/>
<feColorMatrix type="matrix" values="0 0 0 0 0 0 0 0 0 0 0 0 0 0 0 0 0 0 0.5 0"/>
<feBlend mode="normal" in2="BackgroundImageFix" result="effect1_dropShadow_595_133"/>
<feBlend mode="normal" in="SourceGraphic" in2="effect1_dropShadow_595_133" result="shape"/>
</filter>
<filter id="filter1_d_595_133" x="44.1641" y="95.3608" width="280.902" height="126.563" filterUnits="userSpaceOnUse" color-interpolation-filters="sRGB">
<feFlood flood-opacity="0" result="BackgroundImageFix"/>
<feColorMatrix in="SourceAlpha" type="matrix" values="0 0 0 0 0 0 0 0 0 0 0 0 0 0 0 0 0 0 127 0" result="hardAlpha"/>
<feOffset dy="4"/>
<feGaussianBlur stdDeviation="2"/>
<feComposite in2="hardAlpha" operator="out"/>
<feColorMatrix type="matrix" values="0 0 0 0 0 0 0 0 0 0 0 0 0 0 0 0 0 0 0.25 0"/>
<feBlend mode="normal" in2="BackgroundImageFix" result="effect1_dropShadow_595_133"/>
<feBlend mode="normal" in="SourceGraphic" in2="effect1_dropShadow_595_133" result="shape"/>
</filter>
<filter id="filter2_d_595_133" x="203.145" y="97.4067" width="101.668" height="99.8784" filterUnits="userSpaceOnUse" color-interpolation-filters="sRGB">
<feFlood flood-opacity="0" result="BackgroundImageFix"/>
<feColorMatrix in="SourceAlpha" type="matrix" values="0 0 0 0 0 0 0 0 0 0 0 0 0 0 0 0 0 0 127 0" result="hardAlpha"/>
<feOffset dy="12"/>
<feGaussianBlur stdDeviation="2"/>
<feComposite in2="hardAlpha" operator="out"/>
<feColorMatrix type="matrix" values="0 0 0 0 0 0 0 0 0 0 0 0 0 0 0 0 0 0 0.5 0"/>
<feBlend mode="normal" in2="BackgroundImageFix" result="effect1_dropShadow_595_133"/>
<feBlend mode="normal" in="SourceGraphic" in2="effect1_dropShadow_595_133" result="shape"/>
</filter>
<filter id="filter3_d_595_133" x="56.1758" y="95.3608" width="141.41" height="101.925" filterUnits="userSpaceOnUse" color-interpolation-filters="sRGB">
<feFlood flood-opacity="0" result="BackgroundImageFix"/>
<feColorMatrix in="SourceAlpha" type="matrix" values="0 0 0 0 0 0 0 0 0 0 0 0 0 0 0 0 0 0 127 0" result="hardAlpha"/>
<feOffset dy="12"/>
<feGaussianBlur stdDeviation="2"/>
<feComposite in2="hardAlpha" operator="out"/>
<feColorMatrix type="matrix" values="0 0 0 0 0 0 0 0 0 0 0 0 0 0 0 0 0 0 0.5 0"/>
<feBlend mode="normal" in2="BackgroundImageFix" result="effect1_dropShadow_595_133"/>
<feBlend mode="normal" in="SourceGraphic" in2="effect1_dropShadow_595_133" result="shape"/>
</filter>
</defs>
</svg>
