<svg width="1445" height="381" viewBox="0 0 1445 381" fill="none" xmlns="http://www.w3.org/2000/svg">
<rect width="1445" height="380" transform="translate(0 0.0253906)" fill="url(#paint0_radial_554_14)"/>
<g filter="url(#filter0_d_554_14)">
<circle cx="722.496" cy="157.469" r="75" fill="url(#paint1_linear_554_14)"/>
</g>
<path d="M754.741 152.818L709.484 129.407C705.807 127.506 700.176 129.351 700.176 134.053V180.864C700.176 185.083 705.409 187.626 709.484 185.511L754.741 162.111C758.779 160.029 758.791 154.899 754.741 152.818Z" fill="white"/>
<g filter="url(#filter1_d_554_14)">
<circle cx="889.484" cy="138.52" r="60" fill="url(#paint2_linear_554_14)"/>
</g>
<path d="M906.812 106.562C907.062 106.498 907.319 106.465 907.577 106.465C909.263 106.465 910.63 107.832 910.63 109.518V152.545C910.63 158.078 905.237 162.562 898.585 162.562C891.934 162.562 886.541 158.078 886.541 152.545C886.541 147.011 891.934 142.527 898.585 142.527C901.954 142.527 905.003 143.677 907.188 145.536V118.293L879.659 125.417V160.558C879.659 166.092 874.266 170.576 867.615 170.576C860.963 170.576 855.57 166.092 855.57 160.558C855.57 155.025 860.963 150.541 867.615 150.541C870.983 150.541 874.032 151.691 876.218 153.55V120.517C876.218 116.962 878.622 113.857 882.064 112.966L906.812 106.562Z" fill="white"/>
<g filter="url(#filter2_d_554_14)">
<circle cx="1029.47" cy="115.487" r="48" fill="url(#paint3_linear_554_14)"/>
</g>
<path d="M1005.87 131.556H1002.45L1014.59 97.1817H1019.18L1031.06 131.556H1027.64L1024.38 122.019H1009.18L1005.87 131.556ZM1016.88 99.8337C1015.59 103.778 1013.35 110.238 1010.15 119.214H1023.46L1016.88 99.8337ZM1043.64 131.811C1041.26 131.811 1039.31 131.114 1037.78 129.72C1036.28 128.292 1035.53 126.405 1035.53 124.059C1035.53 121.713 1036.49 119.86 1038.39 118.5C1040.33 117.106 1042.88 116.409 1046.04 116.409H1051.09V115.236C1051.09 112.924 1050.6 111.19 1049.61 110.034C1048.62 108.844 1046.87 108.249 1044.36 108.249C1041.88 108.249 1039.56 108.98 1037.42 110.442V107.076C1039.39 105.886 1041.82 105.291 1044.71 105.291C1051.04 105.291 1054.2 108.606 1054.2 115.236V131.556H1051.09V128.547C1049.66 130.723 1047.18 131.811 1043.64 131.811ZM1038.85 124.212C1038.85 125.606 1039.31 126.745 1040.23 127.629C1041.18 128.513 1042.61 128.955 1044.51 128.955C1046.45 128.955 1048.03 128.394 1049.25 127.272C1050.48 126.15 1051.09 124.722 1051.09 122.988V119.265H1046.04C1043.63 119.265 1041.82 119.741 1040.63 120.693C1039.44 121.611 1038.85 122.784 1038.85 124.212Z" fill="white"/>
<g filter="url(#filter3_d_554_14)">
<circle cx="555.512" cy="138.52" r="60" fill="url(#paint4_linear_554_14)"/>
</g>
<path d="M541.589 125.271C542.789 123.782 545.059 123.782 546.26 125.271L566.786 150.735C568.368 152.697 566.971 155.617 564.451 155.617H523.398C520.877 155.617 519.48 152.697 521.062 150.734L541.589 125.271Z" fill="#D9D9D9"/>
<path d="M566.757 131.502C567.958 130.017 570.222 130.017 571.423 131.502L586.937 150.692C588.523 152.654 587.126 155.578 584.604 155.578H553.577C551.054 155.578 549.658 152.654 551.244 150.692L566.757 131.502Z" fill="#D9D9D9"/>
<circle cx="569.094" cy="115.719" r="6" fill="#D9D9D9"/>
<g filter="url(#filter4_d_554_14)">
<circle cx="415.527" cy="115.486" r="48" fill="url(#paint5_linear_554_14)"/>
</g>
<rect x="405.516" y="93.2354" width="32.0297" height="6.52324" rx="3" fill="#D9D9D9"/>
<rect x="393.508" y="106.4" width="44.0367" height="6.52324" rx="3" fill="#D9D9D9"/>
<rect x="393.508" y="119.566" width="44.0367" height="6.52324" rx="3" fill="#D9D9D9"/>
<rect x="393.508" y="132.732" width="44.0367" height="6.52324" rx="3" fill="#D9D9D9"/>
<circle cx="398.008" cy="96.2168" r="4.5" fill="#D9D9D9"/>
<g filter="url(#filter5_d_554_14)">
<ellipse cx="1147.87" cy="90.2662" rx="38.4003" ry="38.4" fill="url(#paint6_linear_554_14)"/>
</g>
<path d="M1175.48 89.6016H1149.46" stroke="white" stroke-width="4.8"/>
<path d="M1145.57 80.4141L1129.54 87.8438L1145.57 94.4297V100.031L1122.3 89.7656V86.4141L1145.57 74.7891V80.4141Z" fill="white"/>
<g filter="url(#filter6_d_554_14)">
<ellipse cx="297.135" cy="90.2623" rx="38.4003" ry="38.4" fill="url(#paint7_linear_554_14)"/>
</g>
<path d="M293.679 98.3418C291.413 99.6309 288.854 100.275 286.003 100.275C282.722 100.275 280.075 99.2402 278.063 97.1699C276.061 95.0898 275.06 92.3164 275.06 88.8496C275.06 85.3437 276.169 82.4629 278.386 80.207C280.602 77.9512 283.444 76.8232 286.911 76.8232C289.362 76.8232 291.437 77.2139 293.137 77.9951V81.1592C291.32 80.0166 289.157 79.4453 286.647 79.4453C284.177 79.4453 282.141 80.29 280.539 81.9795C278.937 83.6689 278.137 85.8955 278.137 88.6592C278.137 91.501 278.874 93.7129 280.349 95.2949C281.823 96.877 283.815 97.668 286.325 97.668C288.054 97.668 289.523 97.3359 290.734 96.6719V90.5342H285.812V87.9414H293.679V98.3418ZM301.779 77.2041V99.8945H298.85V77.2041H301.779ZM319.357 79.8115H310.598V87.3994H318.713V89.9775H310.598V99.8945H307.668V77.2041H319.357V79.8115Z" fill="white"/>
<defs>
<filter id="filter0_d_554_14" x="642.336" y="82.4688" width="160.32" height="257.16" filterUnits="userSpaceOnUse" color-interpolation-filters="sRGB">
<feFlood flood-opacity="0" result="BackgroundImageFix"/>
<feColorMatrix in="SourceAlpha" type="matrix" values="0 0 0 0 0 0 0 0 0 0 0 0 0 0 0 0 0 0 127 0" result="hardAlpha"/>
<feMorphology radius="21" operator="erode" in="SourceAlpha" result="effect1_dropShadow_554_14"/>
<feOffset dy="102"/>
<feGaussianBlur stdDeviation="13.08"/>
<feComposite in2="hardAlpha" operator="out"/>
<feColorMatrix type="matrix" values="0 0 0 0 0 0 0 0 0 0 0 0 0 0 0 0 0 0 0.25 0"/>
<feBlend mode="normal" in2="BackgroundImageFix" result="effect1_dropShadow_554_14"/>
<feBlend mode="normal" in="SourceGraphic" in2="effect1_dropShadow_554_14" result="shape"/>
</filter>
<filter id="filter1_d_554_14" x="829.484" y="78.5195" width="136.128" height="205.728" filterUnits="userSpaceOnUse" color-interpolation-filters="sRGB">
<feFlood flood-opacity="0" result="BackgroundImageFix"/>
<feColorMatrix in="SourceAlpha" type="matrix" values="0 0 0 0 0 0 0 0 0 0 0 0 0 0 0 0 0 0 127 0" result="hardAlpha"/>
<feMorphology radius="16.8" operator="erode" in="SourceAlpha" result="effect1_dropShadow_554_14"/>
<feOffset dx="12" dy="81.6"/>
<feGaussianBlur stdDeviation="10.464"/>
<feComposite in2="hardAlpha" operator="out"/>
<feColorMatrix type="matrix" values="0 0 0 0 0 0 0 0 0 0 0 0 0 0 0 0 0 0 0.25 0"/>
<feBlend mode="normal" in2="BackgroundImageFix" result="effect1_dropShadow_554_14"/>
<feBlend mode="normal" in="SourceGraphic" in2="effect1_dropShadow_554_14" result="shape"/>
</filter>
<filter id="filter2_d_554_14" x="981.469" y="67.4873" width="117.302" height="164.582" filterUnits="userSpaceOnUse" color-interpolation-filters="sRGB">
<feFlood flood-opacity="0" result="BackgroundImageFix"/>
<feColorMatrix in="SourceAlpha" type="matrix" values="0 0 0 0 0 0 0 0 0 0 0 0 0 0 0 0 0 0 127 0" result="hardAlpha"/>
<feMorphology radius="13.44" operator="erode" in="SourceAlpha" result="effect1_dropShadow_554_14"/>
<feOffset dx="18" dy="65.28"/>
<feGaussianBlur stdDeviation="8.3712"/>
<feComposite in2="hardAlpha" operator="out"/>
<feColorMatrix type="matrix" values="0 0 0 0 0 0 0 0 0 0 0 0 0 0 0 0 0 0 0.25 0"/>
<feBlend mode="normal" in2="BackgroundImageFix" result="effect1_dropShadow_554_14"/>
<feBlend mode="normal" in="SourceGraphic" in2="effect1_dropShadow_554_14" result="shape"/>
</filter>
<filter id="filter3_d_554_14" x="479.384" y="78.5195" width="136.128" height="205.728" filterUnits="userSpaceOnUse" color-interpolation-filters="sRGB">
<feFlood flood-opacity="0" result="BackgroundImageFix"/>
<feColorMatrix in="SourceAlpha" type="matrix" values="0 0 0 0 0 0 0 0 0 0 0 0 0 0 0 0 0 0 127 0" result="hardAlpha"/>
<feMorphology radius="16.8" operator="erode" in="SourceAlpha" result="effect1_dropShadow_554_14"/>
<feOffset dx="-12" dy="81.6"/>
<feGaussianBlur stdDeviation="10.464"/>
<feComposite in2="hardAlpha" operator="out"/>
<feColorMatrix type="matrix" values="0 0 0 0 0 0 0 0 0 0 0 0 0 0 0 0 0 0 0.25 0"/>
<feBlend mode="normal" in2="BackgroundImageFix" result="effect1_dropShadow_554_14"/>
<feBlend mode="normal" in="SourceGraphic" in2="effect1_dropShadow_554_14" result="shape"/>
</filter>
<filter id="filter4_d_554_14" x="346.225" y="67.4863" width="117.302" height="164.582" filterUnits="userSpaceOnUse" color-interpolation-filters="sRGB">
<feFlood flood-opacity="0" result="BackgroundImageFix"/>
<feColorMatrix in="SourceAlpha" type="matrix" values="0 0 0 0 0 0 0 0 0 0 0 0 0 0 0 0 0 0 127 0" result="hardAlpha"/>
<feMorphology radius="13.44" operator="erode" in="SourceAlpha" result="effect1_dropShadow_554_14"/>
<feOffset dx="-18" dy="65.28"/>
<feGaussianBlur stdDeviation="8.3712"/>
<feComposite in2="hardAlpha" operator="out"/>
<feColorMatrix type="matrix" values="0 0 0 0 0 0 0 0 0 0 0 0 0 0 0 0 0 0 0.25 0"/>
<feBlend mode="normal" in2="BackgroundImageFix" result="effect1_dropShadow_554_14"/>
<feBlend mode="normal" in="SourceGraphic" in2="effect1_dropShadow_554_14" result="shape"/>
</filter>
<filter id="filter5_d_554_14" x="1109.47" y="51.8662" width="105.601" height="141" filterUnits="userSpaceOnUse" color-interpolation-filters="sRGB">
<feFlood flood-opacity="0" result="BackgroundImageFix"/>
<feColorMatrix in="SourceAlpha" type="matrix" values="0 0 0 0 0 0 0 0 0 0 0 0 0 0 0 0 0 0 127 0" result="hardAlpha"/>
<feMorphology radius="21" operator="erode" in="SourceAlpha" result="effect1_dropShadow_554_14"/>
<feOffset dx="24" dy="59.4"/>
<feGaussianBlur stdDeviation="12.9"/>
<feComposite in2="hardAlpha" operator="out"/>
<feColorMatrix type="matrix" values="0 0 0 0 0 0 0 0 0 0 0 0 0 0 0 0 0 0 0.25 0"/>
<feBlend mode="normal" in2="BackgroundImageFix" result="effect1_dropShadow_554_14"/>
<feBlend mode="normal" in="SourceGraphic" in2="effect1_dropShadow_554_14" result="shape"/>
</filter>
<filter id="filter6_d_554_14" x="229.934" y="51.8623" width="105.601" height="139.2" filterUnits="userSpaceOnUse" color-interpolation-filters="sRGB">
<feFlood flood-opacity="0" result="BackgroundImageFix"/>
<feColorMatrix in="SourceAlpha" type="matrix" values="0 0 0 0 0 0 0 0 0 0 0 0 0 0 0 0 0 0 127 0" result="hardAlpha"/>
<feMorphology radius="21" operator="erode" in="SourceAlpha" result="effect1_dropShadow_554_14"/>
<feOffset dx="-24" dy="57.6"/>
<feGaussianBlur stdDeviation="12.9"/>
<feComposite in2="hardAlpha" operator="out"/>
<feColorMatrix type="matrix" values="0 0 0 0 0 0 0 0 0 0 0 0 0 0 0 0 0 0 0.25 0"/>
<feBlend mode="normal" in2="BackgroundImageFix" result="effect1_dropShadow_554_14"/>
<feBlend mode="normal" in="SourceGraphic" in2="effect1_dropShadow_554_14" result="shape"/>
</filter>
<radialGradient id="paint0_radial_554_14" cx="0" cy="0" r="1" gradientUnits="userSpaceOnUse" gradientTransform="translate(722.5) scale(1120.57 557.327)">
<stop offset="0.349365" stop-color="#670178"/>
<stop offset="0.677801"/>
</radialGradient>
<linearGradient id="paint1_linear_554_14" x1="722.496" y1="82.4688" x2="722.496" y2="229.446" gradientUnits="userSpaceOnUse">
<stop stop-color="#A39AA0"/>
<stop offset="1"/>
</linearGradient>
<linearGradient id="paint2_linear_554_14" x1="859.923" y1="91.2632" x2="928.381" y2="182.54" gradientUnits="userSpaceOnUse">
<stop stop-color="#FB576F"/>
<stop offset="1" stop-color="#FC283F"/>
</linearGradient>
<linearGradient id="paint3_linear_554_14" x1="1005.24" y1="77.3738" x2="1055.16" y2="157.715" gradientUnits="userSpaceOnUse">
<stop stop-color="#A8A8A8"/>
<stop offset="1" stop-color="#444444"/>
</linearGradient>
<linearGradient id="paint4_linear_554_14" x1="578.859" y1="84.258" x2="542.132" y2="195.014" gradientUnits="userSpaceOnUse">
<stop stop-color="#37E3CE"/>
<stop offset="1" stop-color="#210592"/>
</linearGradient>
<linearGradient id="paint5_linear_554_14" x1="445.237" y1="79.8724" x2="399.699" y2="158.588" gradientUnits="userSpaceOnUse">
<stop stop-color="#A137E3"/>
<stop offset="1" stop-color="#100592"/>
</linearGradient>
<linearGradient id="paint6_linear_554_14" x1="1128.63" y1="59.5816" x2="1166.5" y2="119.837" gradientUnits="userSpaceOnUse">
<stop stop-color="#039C6E"/>
<stop offset="1" stop-color="#104C1A"/>
</linearGradient>
<linearGradient id="paint7_linear_554_14" x1="317.726" y1="58.4039" x2="278.693" y2="124.759" gradientUnits="userSpaceOnUse">
<stop stop-color="#32849E"/>
<stop offset="1" stop-color="#344449"/>
</linearGradient>
</defs>
</svg>
