<svg width="676" height="915" viewBox="0 0 676 915" fill="none" xmlns="http://www.w3.org/2000/svg">
<g clip-path="url(#clip0_734_153)">
<rect width="675.302" height="915" transform="translate(0.160156)" fill="url(#paint0_radial_734_153)"/>
<g filter="url(#filter0_d_734_153)">
<circle cx="338.838" cy="357.285" r="51.975" fill="url(#paint1_linear_734_153)"/>
</g>
<path d="M360.373 353.263L329.081 337.076C326.538 335.761 322.645 337.037 322.645 340.288L322.645 372.655C322.645 375.572 326.263 377.33 329.081 375.868L360.373 359.688C363.165 358.249 363.174 354.702 360.373 353.263Z" fill="white"/>
<g filter="url(#filter1_d_734_153)">
<circle cx="454.588" cy="344.152" r="41.58" fill="url(#paint2_linear_734_153)"/>
</g>
<path d="M465.548 321.279C465.72 321.235 465.898 321.212 466.076 321.212V321.212C467.242 321.212 468.187 322.157 468.187 323.323L468.187 353.073C468.187 356.899 464.459 359.999 459.859 359.999C455.26 359.999 451.532 356.899 451.532 353.073C451.532 349.247 455.26 346.147 459.859 346.147C462.189 346.147 464.297 346.942 465.808 348.227L465.808 329.39L446.773 334.316L446.773 358.614C446.773 362.44 443.044 365.541 438.445 365.541C433.846 365.541 430.117 362.44 430.117 358.614C430.117 354.788 433.846 351.688 438.445 351.688C440.774 351.688 442.883 352.483 444.393 353.769L444.393 330.938C444.393 328.474 446.06 326.322 448.445 325.705L465.548 321.279Z" fill="white"/>
<g filter="url(#filter2_d_734_153)">
<circle cx="551.573" cy="328.193" r="33.264" fill="url(#paint3_linear_734_153)"/>
</g>
<path d="M535.227 338.29H532.859L541.27 314.469H544.451L552.686 338.29H550.318L548.056 331.681H537.524L535.227 338.29ZM542.861 316.307C541.965 319.04 540.41 323.517 538.195 329.737H547.42L542.861 316.307ZM561.406 338.467C559.757 338.467 558.402 337.984 557.341 337.018C556.305 336.028 555.786 334.72 555.786 333.095C555.786 331.469 556.446 330.185 557.766 329.242C559.109 328.276 560.876 327.793 563.067 327.793H566.566L566.566 326.98C566.566 325.378 566.224 324.176 565.541 323.375C564.858 322.551 563.644 322.138 561.901 322.138C560.181 322.138 558.578 322.645 557.094 323.658L557.094 321.325C558.461 320.501 560.145 320.088 562.148 320.088C566.531 320.088 568.722 322.386 568.722 326.98L568.722 338.29H566.566L566.566 336.205C565.576 337.713 563.856 338.467 561.406 338.467ZM558.084 333.201C558.084 334.167 558.402 334.956 559.038 335.569C559.698 336.181 560.687 336.488 562.007 336.488C563.35 336.488 564.445 336.099 565.294 335.321C566.142 334.544 566.566 333.554 566.566 332.352L566.566 329.772H563.067C561.394 329.772 560.145 330.102 559.321 330.762C558.496 331.398 558.084 332.211 558.084 333.201Z" fill="white"/>
<g filter="url(#filter3_d_734_153)">
<circle cx="223.131" cy="344.149" r="41.58" fill="url(#paint4_linear_734_153)"/>
</g>
<path d="M213.478 334.969C214.31 333.937 215.883 333.937 216.715 334.969L230.94 352.615C232.036 353.975 231.068 355.999 229.321 355.999H200.872C199.125 355.999 198.157 353.975 199.253 352.615L213.478 334.969Z" fill="#D9D9D9"/>
<path d="M230.926 339.287C231.759 338.258 233.328 338.258 234.16 339.287L244.911 352.586C246.01 353.945 245.042 355.972 243.294 355.972H221.792C220.044 355.972 219.077 353.945 220.176 352.586L230.926 339.287Z" fill="#D9D9D9"/>
<circle cx="232.549" cy="328.349" r="4.158" fill="#D9D9D9"/>
<g filter="url(#filter4_d_734_153)">
<circle cx="126.119" cy="328.19" r="33.264" fill="url(#paint5_linear_734_153)"/>
</g>
<rect x="119.184" y="312.771" width="22.1966" height="4.52061" rx="2.079" fill="#D9D9D9"/>
<rect x="110.855" y="321.894" width="30.5174" height="4.52061" rx="2.079" fill="#D9D9D9"/>
<rect x="110.855" y="331.018" width="30.5174" height="4.52061" rx="2.079" fill="#D9D9D9"/>
<rect x="110.855" y="340.142" width="30.5174" height="4.52061" rx="2.079" fill="#D9D9D9"/>
<circle cx="113.974" cy="314.836" r="3.1185" fill="#D9D9D9"/>
<g filter="url(#filter5_d_734_153)">
<ellipse cx="633.635" cy="310.709" rx="26.6114" ry="26.6112" fill="url(#paint6_linear_734_153)"/>
</g>
<path d="M652.755 310.253H634.727" stroke="white" stroke-width="3.3264"/>
<path d="M632.038 303.403L620.929 308.552L632.038 313.116L632.038 316.998L615.91 309.884L615.91 307.561L632.038 299.505L632.038 303.403Z" fill="white"/>
<g filter="url(#filter6_d_734_153)">
<ellipse cx="44.0724" cy="310.709" rx="26.6114" ry="26.6112" fill="url(#paint7_linear_734_153)"/>
</g>
<path d="M41.6779 316.142C40.1079 317.036 38.3347 317.482 36.3586 317.482C34.0847 317.482 32.2507 316.765 30.8566 315.33C29.4692 313.889 28.7755 311.967 28.7755 309.564C28.7755 307.135 29.5437 305.138 31.0799 303.575C32.6161 302.012 34.5855 301.23 36.988 301.23C38.6867 301.23 40.1248 301.501 41.3023 302.042L41.3023 304.235C40.0436 303.443 38.5445 303.047 36.8053 303.047C35.0931 303.047 33.682 303.632 32.5722 304.803C31.4623 305.974 30.9073 307.517 30.9073 309.432C30.9073 311.402 31.4183 312.934 32.4402 314.031C33.4621 315.127 34.8427 315.675 36.5819 315.675C37.7798 315.675 38.7983 315.445 39.6375 314.985L39.6375 310.732H36.2266L36.2266 308.935H41.6779L41.6779 316.142ZM47.2916 301.494L47.2916 317.218H45.2614L45.2614 301.494H47.2916ZM59.4733 303.301H53.4028L53.4028 308.559H59.0266L59.0266 310.346H53.4028L53.4028 317.218H51.3725L51.3725 301.494H59.4733L59.4733 303.301Z" fill="white"/>
</g>
<defs>
<filter id="filter0_d_734_153" x="283.287" y="305.31" width="111.101" height="178.212" filterUnits="userSpaceOnUse" color-interpolation-filters="sRGB">
<feFlood flood-opacity="0" result="BackgroundImageFix"/>
<feColorMatrix in="SourceAlpha" type="matrix" values="0 0 0 0 0 0 0 0 0 0 0 0 0 0 0 0 0 0 127 0" result="hardAlpha"/>
<feMorphology radius="14.553" operator="erode" in="SourceAlpha" result="effect1_dropShadow_734_153"/>
<feOffset dy="70.686"/>
<feGaussianBlur stdDeviation="9.06444"/>
<feComposite in2="hardAlpha" operator="out"/>
<feColorMatrix type="matrix" values="0 0 0 0 0 0 0 0 0 0 0 0 0 0 0 0 0 0 0.25 0"/>
<feBlend mode="normal" in2="BackgroundImageFix" result="effect1_dropShadow_734_153"/>
<feBlend mode="normal" in="SourceGraphic" in2="effect1_dropShadow_734_153" result="shape"/>
</filter>
<filter id="filter1_d_734_153" x="413.008" y="302.572" width="94.3369" height="142.57" filterUnits="userSpaceOnUse" color-interpolation-filters="sRGB">
<feFlood flood-opacity="0" result="BackgroundImageFix"/>
<feColorMatrix in="SourceAlpha" type="matrix" values="0 0 0 0 0 0 0 0 0 0 0 0 0 0 0 0 0 0 127 0" result="hardAlpha"/>
<feMorphology radius="11.6424" operator="erode" in="SourceAlpha" result="effect1_dropShadow_734_153"/>
<feOffset dx="8.316" dy="56.5488"/>
<feGaussianBlur stdDeviation="7.25155"/>
<feComposite in2="hardAlpha" operator="out"/>
<feColorMatrix type="matrix" values="0 0 0 0 0 0 0 0 0 0 0 0 0 0 0 0 0 0 0.25 0"/>
<feBlend mode="normal" in2="BackgroundImageFix" result="effect1_dropShadow_734_153"/>
<feBlend mode="normal" in="SourceGraphic" in2="effect1_dropShadow_734_153" result="shape"/>
</filter>
<filter id="filter2_d_734_153" x="518.309" y="294.929" width="81.2899" height="114.055" filterUnits="userSpaceOnUse" color-interpolation-filters="sRGB">
<feFlood flood-opacity="0" result="BackgroundImageFix"/>
<feColorMatrix in="SourceAlpha" type="matrix" values="0 0 0 0 0 0 0 0 0 0 0 0 0 0 0 0 0 0 127 0" result="hardAlpha"/>
<feMorphology radius="9.31392" operator="erode" in="SourceAlpha" result="effect1_dropShadow_734_153"/>
<feOffset dx="12.474" dy="45.239"/>
<feGaussianBlur stdDeviation="5.80124"/>
<feComposite in2="hardAlpha" operator="out"/>
<feColorMatrix type="matrix" values="0 0 0 0 0 0 0 0 0 0 0 0 0 0 0 0 0 0 0.25 0"/>
<feBlend mode="normal" in2="BackgroundImageFix" result="effect1_dropShadow_734_153"/>
<feBlend mode="normal" in="SourceGraphic" in2="effect1_dropShadow_734_153" result="shape"/>
</filter>
<filter id="filter3_d_734_153" x="170.374" y="302.569" width="94.3369" height="142.57" filterUnits="userSpaceOnUse" color-interpolation-filters="sRGB">
<feFlood flood-opacity="0" result="BackgroundImageFix"/>
<feColorMatrix in="SourceAlpha" type="matrix" values="0 0 0 0 0 0 0 0 0 0 0 0 0 0 0 0 0 0 127 0" result="hardAlpha"/>
<feMorphology radius="11.6424" operator="erode" in="SourceAlpha" result="effect1_dropShadow_734_153"/>
<feOffset dx="-8.316" dy="56.5488"/>
<feGaussianBlur stdDeviation="7.25155"/>
<feComposite in2="hardAlpha" operator="out"/>
<feColorMatrix type="matrix" values="0 0 0 0 0 0 0 0 0 0 0 0 0 0 0 0 0 0 0.25 0"/>
<feBlend mode="normal" in2="BackgroundImageFix" result="effect1_dropShadow_734_153"/>
<feBlend mode="normal" in="SourceGraphic" in2="effect1_dropShadow_734_153" result="shape"/>
</filter>
<filter id="filter4_d_734_153" x="78.0929" y="294.926" width="81.2899" height="114.055" filterUnits="userSpaceOnUse" color-interpolation-filters="sRGB">
<feFlood flood-opacity="0" result="BackgroundImageFix"/>
<feColorMatrix in="SourceAlpha" type="matrix" values="0 0 0 0 0 0 0 0 0 0 0 0 0 0 0 0 0 0 127 0" result="hardAlpha"/>
<feMorphology radius="9.31392" operator="erode" in="SourceAlpha" result="effect1_dropShadow_734_153"/>
<feOffset dx="-12.474" dy="45.239"/>
<feGaussianBlur stdDeviation="5.80124"/>
<feComposite in2="hardAlpha" operator="out"/>
<feColorMatrix type="matrix" values="0 0 0 0 0 0 0 0 0 0 0 0 0 0 0 0 0 0 0.25 0"/>
<feBlend mode="normal" in2="BackgroundImageFix" result="effect1_dropShadow_734_153"/>
<feBlend mode="normal" in="SourceGraphic" in2="effect1_dropShadow_734_153" result="shape"/>
</filter>
<filter id="filter5_d_734_153" x="607.023" y="284.098" width="73.1811" height="97.7128" filterUnits="userSpaceOnUse" color-interpolation-filters="sRGB">
<feFlood flood-opacity="0" result="BackgroundImageFix"/>
<feColorMatrix in="SourceAlpha" type="matrix" values="0 0 0 0 0 0 0 0 0 0 0 0 0 0 0 0 0 0 127 0" result="hardAlpha"/>
<feMorphology radius="14.553" operator="erode" in="SourceAlpha" result="effect1_dropShadow_734_153"/>
<feOffset dx="16.632" dy="41.1642"/>
<feGaussianBlur stdDeviation="8.9397"/>
<feComposite in2="hardAlpha" operator="out"/>
<feColorMatrix type="matrix" values="0 0 0 0 0 0 0 0 0 0 0 0 0 0 0 0 0 0 0.25 0"/>
<feBlend mode="normal" in2="BackgroundImageFix" result="effect1_dropShadow_734_153"/>
<feBlend mode="normal" in="SourceGraphic" in2="effect1_dropShadow_734_153" result="shape"/>
</filter>
<filter id="filter6_d_734_153" x="-2.49747" y="284.098" width="73.1811" height="96.4654" filterUnits="userSpaceOnUse" color-interpolation-filters="sRGB">
<feFlood flood-opacity="0" result="BackgroundImageFix"/>
<feColorMatrix in="SourceAlpha" type="matrix" values="0 0 0 0 0 0 0 0 0 0 0 0 0 0 0 0 0 0 127 0" result="hardAlpha"/>
<feMorphology radius="14.553" operator="erode" in="SourceAlpha" result="effect1_dropShadow_734_153"/>
<feOffset dx="-16.632" dy="39.9168"/>
<feGaussianBlur stdDeviation="8.9397"/>
<feComposite in2="hardAlpha" operator="out"/>
<feColorMatrix type="matrix" values="0 0 0 0 0 0 0 0 0 0 0 0 0 0 0 0 0 0 0.25 0"/>
<feBlend mode="normal" in2="BackgroundImageFix" result="effect1_dropShadow_734_153"/>
<feBlend mode="normal" in="SourceGraphic" in2="effect1_dropShadow_734_153" result="shape"/>
</filter>
<radialGradient id="paint0_radial_734_153" cx="0" cy="0" r="1" gradientUnits="userSpaceOnUse" gradientTransform="translate(337.651 9.37522) rotate(90) scale(694.918 512.874)">
<stop stop-color="#9906B1"/>
<stop offset="1"/>
</radialGradient>
<linearGradient id="paint1_linear_734_153" x1="338.838" y1="305.31" x2="338.838" y2="407.165" gradientUnits="userSpaceOnUse">
<stop stop-color="#A39AA0"/>
<stop offset="1"/>
</linearGradient>
<linearGradient id="paint2_linear_734_153" x1="434.102" y1="311.404" x2="481.543" y2="374.658" gradientUnits="userSpaceOnUse">
<stop stop-color="#FB576F"/>
<stop offset="1" stop-color="#FC283F"/>
</linearGradient>
<linearGradient id="paint3_linear_734_153" x1="534.779" y1="301.78" x2="569.378" y2="357.456" gradientUnits="userSpaceOnUse">
<stop stop-color="#A8A8A8"/>
<stop offset="1" stop-color="#444444"/>
</linearGradient>
<linearGradient id="paint4_linear_734_153" x1="239.311" y1="306.546" x2="213.859" y2="383.3" gradientUnits="userSpaceOnUse">
<stop stop-color="#37E3CE"/>
<stop offset="1" stop-color="#210592"/>
</linearGradient>
<linearGradient id="paint5_linear_734_153" x1="146.708" y1="303.509" x2="115.151" y2="358.059" gradientUnits="userSpaceOnUse">
<stop stop-color="#A137E3"/>
<stop offset="1" stop-color="#100592"/>
</linearGradient>
<linearGradient id="paint6_linear_734_153" x1="620.301" y1="289.444" x2="646.549" y2="331.202" gradientUnits="userSpaceOnUse">
<stop stop-color="#039C6E"/>
<stop offset="1" stop-color="#104C1A"/>
</linearGradient>
<linearGradient id="paint7_linear_734_153" x1="58.3418" y1="288.631" x2="31.2923" y2="334.616" gradientUnits="userSpaceOnUse">
<stop stop-color="#32849E"/>
<stop offset="1" stop-color="#344449"/>
</linearGradient>
<clipPath id="clip0_734_153">
<rect width="675.302" height="915" fill="white" transform="translate(0.160156)"/>
</clipPath>
</defs>
</svg>
