<svg width="1920" height="533" viewBox="0 0 1920 533" fill="none" xmlns="http://www.w3.org/2000/svg">
<g clip-path="url(#clip0_696_244)">
<rect width="1920" height="532" transform="translate(0 0.343262)" fill="#003355"/>
<circle cx="1571.72" cy="436.828" r="396.5" transform="rotate(27.3408 1571.72 436.828)" fill="url(#paint0_linear_696_244)"/>
<circle cx="350.972" cy="0.468625" r="316" transform="rotate(-27.4197 350.972 0.468625)" fill="url(#paint1_linear_696_244)"/>
<path d="M555.478 34.5418C543.202 29.0168 530.038 24.9462 516.275 22.6148C516.024 22.5698 516.215 22.5968 515.451 22.4163C511.894 21.5763 510.763 21.7426 510.763 21.7426C510.763 21.7426 481.232 19.5686 466.732 21.7426C464.794 22.0328 464.583 21.7428 462.293 22.373C461.977 22.46 461.395 22.5774 461.144 22.6148C447.388 24.9388 434.224 29.0094 421.941 34.5418C421.835 34.5868 421.744 34.6618 421.683 34.7593C396.714 71.3499 389.874 107.041 393.23 142.29C393.245 142.463 393.343 142.627 393.48 142.732C409.954 154.599 425.912 161.803 441.573 166.579C441.824 166.654 444.953 166.49 445.195 166.579C448.425 160.81 450.597 155.887 452.607 150.284C452.278 150.07 452.095 149.959 451.753 149.831C447.226 146.176 442.467 142.6 436.729 141.803C436.35 141.585 436.32 142.058 436.669 141.803C437.678 141.06 435.765 142.582 436.729 141.803C436.904 141.66 451.67 149.742 451.875 149.831C483.395 163.948 494.455 163.941 525.604 149.824C525.809 149.727 537.516 139.359 537.698 139.501C538.662 140.281 539.672 141.06 540.689 141.803C541.038 142.058 537.999 139.317 537.62 139.535C532.821 142.286 529.912 146.095 525.604 149.824C525.263 149.951 453.166 150.027 452.607 150.284C449.738 156.064 448.122 159.296 445.195 166.579C445.6 166.645 535.535 166.654 535.785 166.579C551.522 161.803 567.48 154.599 583.953 142.732C584.098 142.627 584.189 142.47 584.205 142.298C588.22 101.546 577.478 66.1474 555.728 34.7667C555.675 34.6618 555.584 34.5868 555.478 34.5418Z" fill="url(#paint2_linear_696_244)"/>
<path d="M1329.07 206.773C1294.39 206.301 1273.25 168.413 1291.08 138.653L1358.1 26.7724C1375.41 -2.11624 1417.15 -2.45874 1434.92 26.1421L1505.63 139.896C1524.4 170.106 1502.36 209.131 1466.8 208.647L1329.07 206.773Z" fill="url(#paint3_linear_696_244)"/>
<path d="M1787.72 242.786C1817.31 249.512 1838.31 275.821 1838.31 306.17V435.105C1838.31 467.566 1812.5 494.141 1780.05 495.08L1569.28 501.18C1537.44 502.101 1510.62 477.584 1508.69 445.79L1498.56 279.493C1495.4 227.573 1542.98 187.164 1593.7 198.692L1787.72 242.786Z" fill="url(#paint4_linear_696_244)"/>
<path d="M75.6936 353.561C77.4948 351.326 80.8992 351.326 82.7004 353.561L113.49 391.756C115.863 394.699 113.768 399.08 109.987 399.08H48.4074C44.6263 399.08 42.531 394.699 44.904 391.756L75.6936 353.561Z" fill="#8099AA"/>
<path d="M113.448 362.907C115.249 360.679 118.646 360.679 120.447 362.907L143.718 391.692C146.096 394.634 144.002 399.021 140.218 399.021H93.6777C89.8937 399.021 87.7992 394.634 90.1782 391.692L113.448 362.907Z" fill="#8099AA"/>
<circle cx="116.953" cy="339.232" r="9" fill="#8099AA"/>
<path d="M1252.06 77.5295L1206.8 54.1183C1203.12 52.217 1197.49 54.062 1197.49 58.7645V105.576C1197.49 109.795 1202.73 112.337 1206.8 110.222L1252.06 86.822C1256.1 84.7408 1256.11 79.6108 1252.06 77.5295Z" fill="#8099AA"/>
<path d="M693.633 339.33C693.882 339.265 694.139 339.232 694.397 339.232V339.232C696.083 339.232 697.45 340.599 697.45 342.285V385.312C697.45 390.846 692.058 395.329 685.406 395.329C678.754 395.329 673.362 390.846 673.362 385.312C673.362 379.779 678.754 375.295 685.406 375.295C688.775 375.295 691.824 376.445 694.009 378.304V351.06L666.479 358.184V393.326C666.479 398.86 661.087 403.343 654.435 403.343C647.783 403.343 642.391 398.86 642.391 393.326C642.391 387.792 647.783 383.309 654.435 383.309C657.804 383.309 660.853 384.459 663.038 386.318V353.285C663.038 349.73 665.442 346.624 668.884 345.734L693.633 339.33Z" fill="#8099AA"/>
<path d="M1838.31 142.606H1786.28" stroke="#8099AA" stroke-width="9.6"/>
<path d="M1778.5 123.232L1746.44 138.091L1778.5 151.263V162.466L1731.95 141.935V135.232L1778.5 111.982V123.232Z" fill="#8099AA"/>
<path d="M539.047 505.261C587.407 504.024 616.965 451.647 593.025 409.61L591.072 406.181C573.652 375.592 535.767 363.354 503.744 377.973L500.005 379.68V379.68C500.005 345.416 481.424 313.846 451.468 297.214L448.134 295.363V295.363C402.134 275.277 348.556 296.206 328.349 342.153L321.166 358.487L297.537 360.845C249.17 365.672 220.242 417.024 241.179 460.891V460.891C256.088 492.13 287.975 511.679 322.578 510.794L539.047 505.261Z" fill="url(#paint5_linear_696_244)"/>
</g>
<defs>
<linearGradient id="paint0_linear_696_244" x1="1693.89" y1="103.642" x2="1269.85" y2="682.202" gradientUnits="userSpaceOnUse">
<stop stop-color="#003355"/>
<stop offset="0.468181" stop-color="#003355"/>
<stop offset="1" stop-color="#0058A4"/>
</linearGradient>
<linearGradient id="paint1_linear_696_244" x1="511.009" y1="-3.92544" x2="63.0816" y2="97.6656" gradientUnits="userSpaceOnUse">
<stop stop-color="#003355"/>
<stop offset="0.471491" stop-color="#003355"/>
<stop offset="1" stop-color="#0058A4"/>
</linearGradient>
<linearGradient id="paint2_linear_696_244" x1="511.955" y1="63.8679" x2="437.047" y2="153.96" gradientUnits="userSpaceOnUse">
<stop stop-color="#164E89"/>
<stop offset="1" stop-color="#2F69C1"/>
</linearGradient>
<linearGradient id="paint3_linear_696_244" x1="1379.52" y1="284.876" x2="1410.5" y2="12.6098" gradientUnits="userSpaceOnUse">
<stop stop-color="#0B57D0"/>
<stop offset="1" stop-color="#0B57D0"/>
</linearGradient>
<linearGradient id="paint4_linear_696_244" x1="1491.39" y1="371.748" x2="1894.58" y2="265.094" gradientUnits="userSpaceOnUse">
<stop stop-color="#0B57CF"/>
<stop offset="1" stop-color="#052352"/>
</linearGradient>
<linearGradient id="paint5_linear_696_244" x1="553.11" y1="468.046" x2="280.838" y2="421.132" gradientUnits="userSpaceOnUse">
<stop stop-color="#306AC3"/>
<stop offset="1" stop-color="#164E89"/>
</linearGradient>
<clipPath id="clip0_696_244">
<rect width="1920" height="532" fill="white" transform="translate(0 0.343262)"/>
</clipPath>
</defs>
</svg>
