<svg width="1920" height="557" viewBox="0 0 1920 557" fill="none" xmlns="http://www.w3.org/2000/svg">
<g clip-path="url(#clip0_686_83)">
<ellipse cx="1223.76" cy="558" rx="396.037" ry="368.08" transform="rotate(35.4441 1223.76 558)" fill="url(#paint0_linear_686_83)"/>
<ellipse cx="808.635" cy="581.024" rx="396.037" ry="368.08" transform="rotate(67.3279 808.635 581.024)" fill="url(#paint1_linear_686_83)"/>
<ellipse cx="594.352" cy="613.363" rx="396.037" ry="368.08" transform="rotate(35.4441 594.352 613.363)" fill="url(#paint2_linear_686_83)"/>
<ellipse cx="233.957" cy="579.159" rx="396.037" ry="368.08" transform="rotate(88.8978 233.957 579.159)" fill="url(#paint3_linear_686_83)"/>
<ellipse cx="1657.05" cy="591.143" rx="396.037" ry="368.08" transform="rotate(67.3279 1657.05 591.143)" fill="url(#paint4_linear_686_83)"/>
<ellipse cx="1380.87" cy="705.649" rx="396.037" ry="368.08" transform="rotate(35.4441 1380.87 705.649)" fill="url(#paint5_linear_686_83)"/>
<ellipse cx="850.809" cy="705.649" rx="396.037" ry="368.08" transform="rotate(35.4441 850.809 705.649)" fill="url(#paint6_linear_686_83)"/>
<ellipse cx="348.815" cy="723.049" rx="396.037" ry="368.08" transform="rotate(66.3704 348.815 723.049)" fill="url(#paint7_linear_686_83)"/>
<ellipse cx="-224.035" cy="551.705" rx="447.045" ry="418.429" transform="rotate(-168.073 -224.035 551.705)" fill="url(#paint8_linear_686_83)"/>
<ellipse cx="1889.76" cy="570.266" rx="396.037" ry="368.08" fill="url(#paint9_linear_686_83)"/>
<path fill-rule="evenodd" clip-rule="evenodd" d="M1224.89 355.05C1215.79 355.05 1207.05 358.668 1200.61 365.109C1194.17 371.55 1190.55 380.285 1190.55 389.394V595.458C1190.55 614.416 1205.94 629.802 1224.89 629.802H1470.2C1479.31 629.802 1488.04 626.184 1494.48 619.743C1500.92 613.302 1504.54 604.567 1504.54 595.458V428.644C1504.54 419.536 1500.92 410.8 1494.48 404.359C1488.04 397.919 1479.31 394.3 1470.2 394.3H1342.64C1341.88 394.3 1341.13 394.123 1340.45 393.782C1339.76 393.442 1339.17 392.947 1338.72 392.338L1321.05 368.787C1314.58 360.152 1304.37 355.05 1293.58 355.05H1224.89ZM1422.2 509.317C1431.95 509.317 1439.85 501.415 1439.85 491.667C1439.85 481.919 1431.95 474.017 1422.2 474.017C1412.45 474.017 1404.55 481.919 1404.55 491.667C1404.55 501.415 1412.45 509.317 1422.2 509.317ZM1281.24 509.317C1290.99 509.317 1298.89 501.415 1298.89 491.667C1298.89 481.919 1290.99 474.017 1281.24 474.017C1271.5 474.017 1263.6 481.919 1263.6 491.667C1263.6 501.415 1271.5 509.317 1281.24 509.317Z" fill="#667C21"/>
<path fill-rule="evenodd" clip-rule="evenodd" d="M1224.93 408.123C1215.31 408.123 1204.36 408.123 1192.04 408.123C1190.72 408.123 1191.83 408.123 1190.58 408.124L1190.58 597.471C1190.58 615.316 1205.96 629.799 1224.92 629.799H1470.23C1479.33 629.799 1488.07 626.393 1494.51 620.331C1500.95 614.268 1504.57 606.045 1504.57 597.471V440.45C1504.57 431.877 1500.95 423.654 1494.51 417.591C1488.07 411.529 1479.33 408.123 1470.23 408.123H1342.67C1341.91 408.123 1341.07 408.123 1340.32 408.123C1339.57 408.123 1339.19 408.123 1338.55 408.123H1321.24C1310.37 408.123 1304.84 408.123 1294.05 408.123H1224.93ZM1422.29 509.297C1432.04 509.297 1439.94 501.395 1439.94 491.647C1439.94 481.899 1432.04 473.997 1422.29 473.997C1412.55 473.997 1404.64 481.899 1404.64 491.647C1404.64 501.395 1412.55 509.297 1422.29 509.297ZM1281.34 509.297C1291.08 509.297 1298.99 501.395 1298.99 491.647C1298.99 481.899 1291.08 473.997 1281.34 473.997C1271.59 473.997 1263.69 481.899 1263.69 491.647C1263.69 501.395 1271.59 509.297 1281.34 509.297Z" fill="#A4C639"/>
</g>
<defs>
<linearGradient id="paint0_linear_686_83" x1="811.641" y1="578.589" x2="1255.92" y2="558" gradientUnits="userSpaceOnUse">
<stop stop-color="#FF3D00"/>
<stop offset="1" stop-color="#20244D"/>
</linearGradient>
<linearGradient id="paint1_linear_686_83" x1="420.547" y1="587.383" x2="840.791" y2="581.024" gradientUnits="userSpaceOnUse">
<stop stop-color="#7438F5"/>
<stop offset="1" stop-color="#20244D"/>
</linearGradient>
<linearGradient id="paint2_linear_686_83" x1="409.942" y1="354.296" x2="626.508" y2="613.363" gradientUnits="userSpaceOnUse">
<stop stop-color="#0096B6"/>
<stop offset="1" stop-color="#20244D"/>
</linearGradient>
<linearGradient id="paint3_linear_686_83" x1="-145.585" y1="615.095" x2="266.113" y2="579.159" gradientUnits="userSpaceOnUse">
<stop stop-color="#AC00A5"/>
<stop offset="1" stop-color="#20244D"/>
</linearGradient>
<linearGradient id="paint4_linear_686_83" x1="1261.01" y1="591.143" x2="1689.21" y2="591.143" gradientUnits="userSpaceOnUse">
<stop stop-color="#5D248A"/>
<stop offset="1" stop-color="#20244D"/>
</linearGradient>
<linearGradient id="paint5_linear_686_83" x1="1142.56" y1="418.727" x2="1413.03" y2="705.649" gradientUnits="userSpaceOnUse">
<stop stop-color="#A43F8E"/>
<stop offset="1" stop-color="#20244D"/>
</linearGradient>
<linearGradient id="paint6_linear_686_83" x1="796.291" y1="333.161" x2="928.073" y2="748.193" gradientUnits="userSpaceOnUse">
<stop stop-color="#0BB552"/>
<stop offset="1" stop-color="#20244D"/>
</linearGradient>
<linearGradient id="paint7_linear_686_83" x1="-47.2223" y1="723.049" x2="380.971" y2="723.049" gradientUnits="userSpaceOnUse">
<stop stop-color="#5D248A"/>
<stop offset="1" stop-color="#20244D"/>
</linearGradient>
<linearGradient id="paint8_linear_686_83" x1="-564.002" y1="808.01" x2="-495.751" y2="358.446" gradientUnits="userSpaceOnUse">
<stop stop-color="#E2CC05"/>
<stop offset="1" stop-color="#20244D"/>
</linearGradient>
<linearGradient id="paint9_linear_686_83" x1="1536.42" y1="427.439" x2="1921.92" y2="570.266" gradientUnits="userSpaceOnUse">
<stop stop-color="#0A81C4"/>
<stop offset="1" stop-color="#20244D"/>
</linearGradient>
<clipPath id="clip0_686_83">
<rect width="1920" height="556.262" fill="white"/>
</clipPath>
</defs>
</svg>
