<svg width="82" height="69" viewBox="0 0 82 69" fill="none" xmlns="http://www.w3.org/2000/svg">
<rect x="1.61328" y="34.8877" width="78.5434" height="22.7962" stroke="#D100E3" stroke-width="2.25"/>
<path d="M50.1194 18.1799V19.3049H51.2444H64.952V34.3116H16.8125V1.85449H50.1194V18.1799ZM52.3694 17.0549V3.71165L56.8942 8.85544L63.6847 17.0549H52.3694Z" stroke="#D100E3" stroke-width="2.25"/>
<rect x="16.8125" y="58.1348" width="48.1114" height="9.08701" stroke="#D100E3" stroke-width="2.25"/>
<path d="M11.8052 41.1591H14.0194V47.9602C14.0194 48.7239 13.837 49.3921 13.4722 49.9648C13.1108 50.5375 12.6046 50.9841 11.9535 51.3046C11.3023 51.6216 10.5438 51.7801 9.67789 51.7801C8.80858 51.7801 8.04835 51.6216 7.39721 51.3046C6.74608 50.9841 6.23983 50.5375 5.87846 49.9648C5.5171 49.3921 5.33642 48.7239 5.33642 47.9602V41.1591H7.55062V47.771C7.55062 48.1699 7.63755 48.5244 7.81142 48.8347C7.98869 49.1449 8.23755 49.3887 8.55801 49.5659C8.87846 49.7432 9.25176 49.8318 9.67789 49.8318C10.1074 49.8318 10.4807 49.7432 10.7978 49.5659C11.1182 49.3887 11.3654 49.1449 11.5393 48.8347C11.7165 48.5244 11.8052 48.1699 11.8052 47.771V41.1591ZM15.8411 51.6318V41.1591H22.8979V42.9847H18.0553V45.4801H22.5349V47.3057H18.0553V49.8063H22.9184V51.6318H15.8411ZM27.9911 51.6318V41.1591H32.1229C32.9172 41.1591 33.5939 41.3108 34.153 41.6142C34.7121 41.9142 35.1383 42.3318 35.4314 42.8671C35.728 43.3989 35.8763 44.0125 35.8763 44.708C35.8763 45.4034 35.7263 46.0171 35.4263 46.5489C35.1263 47.0807 34.6917 47.4949 34.1224 47.7915C33.5564 48.0881 32.8712 48.2364 32.0667 48.2364H29.4331V46.4619H31.7087C32.1349 46.4619 32.486 46.3887 32.7621 46.2421C33.0417 46.0921 33.2496 45.8858 33.386 45.6233C33.5258 45.3574 33.5956 45.0523 33.5956 44.708C33.5956 44.3602 33.5258 44.0568 33.386 43.7977C33.2496 43.5352 33.0417 43.3324 32.7621 43.1892C32.4826 43.0426 32.128 42.9693 31.6985 42.9693H30.2053V51.6318H27.9911ZM37.2736 51.6318V43.7773H39.3856V45.1477H39.4674C39.6106 44.6602 39.8509 44.2921 40.1884 44.0432C40.5259 43.7909 40.9145 43.6648 41.3543 43.6648C41.4634 43.6648 41.581 43.6716 41.7072 43.6852C41.8333 43.6989 41.9441 43.7176 42.0395 43.7415V45.6744C41.9373 45.6438 41.7958 45.6165 41.6151 45.5926C41.4344 45.5688 41.2691 45.5568 41.1191 45.5568C40.7986 45.5568 40.5123 45.6267 40.26 45.7665C40.0111 45.9029 39.8134 46.0938 39.6668 46.3392C39.5236 46.5847 39.452 46.8676 39.452 47.1881V51.6318H37.2736ZM46.3491 51.7852C45.5547 51.7852 44.8678 51.6165 44.2883 51.279C43.7121 50.9381 43.2672 50.4642 42.9536 49.8574C42.64 49.2472 42.4832 48.5398 42.4832 47.7352C42.4832 46.9239 42.64 46.2148 42.9536 45.608C43.2672 44.9977 43.7121 44.5239 44.2883 44.1864C44.8678 43.8455 45.5547 43.675 46.3491 43.675C47.1434 43.675 47.8286 43.8455 48.4047 44.1864C48.9843 44.5239 49.4309 44.9977 49.7445 45.608C50.0582 46.2148 50.215 46.9239 50.215 47.7352C50.215 48.5398 50.0582 49.2472 49.7445 49.8574C49.4309 50.4642 48.9843 50.9381 48.4047 51.279C47.8286 51.6165 47.1434 51.7852 46.3491 51.7852ZM46.3593 50.0977C46.7207 50.0977 47.0224 49.9955 47.2644 49.7909C47.5064 49.583 47.6888 49.3 47.8116 48.9421C47.9377 48.5841 48.0008 48.1767 48.0008 47.7199C48.0008 47.2631 47.9377 46.8557 47.8116 46.4977C47.6888 46.1398 47.5064 45.8568 47.2644 45.6489C47.0224 45.4409 46.7207 45.3369 46.3593 45.3369C45.9945 45.3369 45.6877 45.4409 45.4388 45.6489C45.1934 45.8568 45.0076 46.1398 44.8814 46.4977C44.7587 46.8557 44.6974 47.2631 44.6974 47.7199C44.6974 48.1767 44.7587 48.5841 44.8814 48.9421C45.0076 49.3 45.1934 49.583 45.4388 49.7909C45.6877 49.9955 45.9945 50.0977 46.3593 50.0977ZM51.6314 43.7773H53.8099V52.0205C53.8099 52.6273 53.6905 53.1182 53.4519 53.4932C53.2133 53.8682 52.8706 54.1426 52.4241 54.3165C51.9809 54.4904 51.4508 54.5773 50.8337 54.5773C50.7587 54.5773 50.6871 54.5756 50.6189 54.5722C50.5474 54.5722 50.4724 54.5705 50.3939 54.5671V52.8642C50.4519 52.8676 50.503 52.8693 50.5474 52.8693C50.5883 52.8727 50.6326 52.8744 50.6803 52.8744C51.0314 52.8744 51.2769 52.7994 51.4167 52.6494C51.5599 52.5029 51.6314 52.2813 51.6314 51.9847V43.7773ZM52.7155 42.7648C52.3951 42.7648 52.1189 42.6574 51.8871 42.4426C51.6553 42.2244 51.5394 41.9637 51.5394 41.6602C51.5394 41.3602 51.6553 41.1029 51.8871 40.8881C52.1189 40.6699 52.3951 40.5608 52.7155 40.5608C53.0428 40.5608 53.3206 40.6699 53.5491 40.8881C53.7809 41.1029 53.8968 41.3602 53.8968 41.6602C53.8968 41.9637 53.7809 42.2244 53.5491 42.4426C53.3206 42.6574 53.0428 42.7648 52.7155 42.7648ZM59.1344 51.7852C58.3265 51.7852 57.631 51.6216 57.0481 51.2943C56.4685 50.9637 56.0219 50.4966 55.7083 49.8932C55.3947 49.2864 55.2378 48.5688 55.2378 47.7404C55.2378 46.9324 55.3947 46.2233 55.7083 45.6131C56.0219 45.0029 56.4634 44.5273 57.0327 44.1864C57.6054 43.8455 58.277 43.675 59.0475 43.675C59.5657 43.675 60.0481 43.7585 60.4947 43.9256C60.9447 44.0892 61.3367 44.3364 61.6708 44.6671C62.0083 44.9977 62.2708 45.4137 62.4583 45.9148C62.6458 46.4125 62.7395 46.9955 62.7395 47.6637V48.2619H56.1072V46.9119H60.689C60.689 46.5983 60.6208 46.3205 60.4844 46.0784C60.3481 45.8364 60.1589 45.6472 59.9168 45.5108C59.6782 45.371 59.4003 45.3012 59.0833 45.3012C58.7526 45.3012 58.4594 45.3779 58.2037 45.5313C57.9515 45.6813 57.7537 45.8841 57.6106 46.1398C57.4674 46.3921 57.3941 46.6733 57.3907 46.9835V48.2671C57.3907 48.6557 57.4623 48.9915 57.6054 49.2744C57.752 49.5574 57.9583 49.7756 58.2242 49.929C58.4901 50.0824 58.8054 50.1591 59.1702 50.1591C59.4123 50.1591 59.6339 50.125 59.835 50.0568C60.0361 49.9887 60.2083 49.8864 60.3515 49.75C60.4947 49.6137 60.6037 49.4466 60.6787 49.2489L62.6935 49.3818C62.5912 49.8659 62.3816 50.2887 62.0645 50.65C61.7509 51.008 61.3452 51.2875 60.8475 51.4887C60.3532 51.6864 59.7822 51.7852 59.1344 51.7852ZM67.71 51.7852C66.9054 51.7852 66.2134 51.6148 65.6339 51.2739C65.0577 50.9296 64.6145 50.4523 64.3043 49.8421C63.9975 49.2318 63.8441 48.5296 63.8441 47.7352C63.8441 46.9307 63.9992 46.225 64.3094 45.6182C64.6231 45.008 65.0679 44.5324 65.6441 44.1915C66.2202 43.8472 66.9054 43.675 67.6998 43.675C68.385 43.675 68.985 43.7994 69.4998 44.0483C70.0145 44.2972 70.4219 44.6466 70.7219 45.0966C71.0219 45.5466 71.1873 46.075 71.2179 46.6818H69.1623C69.1043 46.2898 68.9509 45.9744 68.702 45.7358C68.4566 45.4938 68.1344 45.3727 67.7356 45.3727C67.3981 45.3727 67.1032 45.4648 66.8509 45.6489C66.602 45.8296 66.4077 46.0938 66.2679 46.4415C66.1282 46.7892 66.0583 47.2102 66.0583 47.7046C66.0583 48.2057 66.1265 48.6318 66.2628 48.983C66.4026 49.3341 66.5986 49.6017 66.8509 49.7858C67.1032 49.9699 67.3981 50.0619 67.7356 50.0619C67.9844 50.0619 68.2077 50.0108 68.4054 49.9085C68.6066 49.8063 68.7719 49.658 68.9015 49.4637C69.0344 49.2659 69.1214 49.029 69.1623 48.7529H71.2179C71.1839 49.3529 71.0202 49.8813 70.727 50.3381C70.4373 50.7915 70.0367 51.146 69.5253 51.4017C69.014 51.6574 68.4089 51.7852 67.71 51.7852ZM76.7905 43.7773V45.4137H72.0604V43.7773H76.7905ZM73.1343 41.8955H75.3127V49.2182C75.3127 49.4193 75.3434 49.5762 75.4047 49.6887C75.4661 49.7977 75.5513 49.8744 75.6604 49.9188C75.7729 49.9631 75.9025 49.9852 76.0491 49.9852C76.1513 49.9852 76.2536 49.9767 76.3559 49.9597C76.4582 49.9392 76.5366 49.9239 76.5911 49.9137L76.9337 51.5347C76.8246 51.5688 76.6712 51.608 76.4735 51.6523C76.2758 51.7 76.0354 51.729 75.7525 51.7392C75.2275 51.7597 74.7672 51.6898 74.3718 51.5296C73.9797 51.3693 73.6746 51.1205 73.4564 50.783C73.2383 50.4455 73.1309 50.0193 73.1343 49.5046V41.8955Z" fill="white"/>
</svg>
