<svg width="43" height="42" viewBox="0 0 43 42" fill="none" xmlns="http://www.w3.org/2000/svg">
<path d="M19.5398 3.45982C20.3484 2.06145 22.3671 2.06145 23.1757 3.45982L37.5143 28.2566C38.3238 29.6566 37.3135 31.4078 35.6963 31.4078H7.0191C5.40189 31.4078 4.39161 29.6566 5.20115 28.2566L19.5398 3.45982Z" fill="#FFD600"/>
<path d="M22.8299 21.3416H19.911L19.3009 9.65381H23.44L22.8299 21.3416ZM19.253 25.4209C19.253 24.759 19.4325 24.2565 19.7914 23.9136C20.1502 23.5706 20.6646 23.3992 21.3346 23.3992C22.0125 23.3992 22.5309 23.5746 22.8897 23.9255C23.2566 24.2764 23.44 24.7749 23.44 25.4209C23.44 26.0589 23.2526 26.5614 22.8778 26.9282C22.5109 27.2871 21.9965 27.4666 21.3346 27.4666C20.6806 27.4666 20.1702 27.2911 19.8033 26.9402C19.4365 26.5813 19.253 26.0749 19.253 25.4209Z" fill="black"/>
</svg>
