<svg width="55" height="49" viewBox="0 0 55 49" fill="none" xmlns="http://www.w3.org/2000/svg">
<path d="M17.749 0.972656C19.6051 0.972656 21.3599 1.85013 22.4736 3.33496L25.5107 7.38477C25.5892 7.48944 25.6916 7.57424 25.8086 7.63281C25.9257 7.69139 26.0555 7.72266 26.1865 7.72266H48.1221C49.6884 7.72266 51.1912 8.34457 52.2988 9.45215C53.4063 10.5596 54.0282 12.0617 54.0283 13.6279V42.3145C54.0283 43.8807 53.4063 45.3827 52.2988 46.4902C51.1912 47.5978 49.6884 48.2207 48.1221 48.2207H5.9375C2.67747 48.2207 0.0313343 45.5745 0.03125 42.3145V6.87891C0.03125 5.31255 0.653162 3.80973 1.76074 2.70215C2.86832 1.59457 4.37115 0.972656 5.9375 0.972656H17.749ZM14.9473 21.1768C13.2762 21.1768 11.9219 22.5311 11.9219 24.2021C11.9221 25.873 13.2764 27.2275 14.9473 27.2275C16.6179 27.2272 17.9724 25.8728 17.9727 24.2021C17.9727 22.5313 16.618 21.1771 14.9473 21.1768ZM39.1113 21.1768C37.4403 21.1768 36.0859 22.5311 36.0859 24.2021C36.0862 25.873 37.4404 27.2275 39.1113 27.2275C40.7819 27.2272 42.1365 25.8728 42.1367 24.2021C42.1367 22.5313 40.7821 21.1771 39.1113 21.1768Z" fill="#667C21"/>
<path d="M48.126 10.1001C49.6923 10.1001 51.1952 10.6855 52.3027 11.728C53.4103 12.7706 54.0322 14.1853 54.0322 15.6597V42.6616C54.0321 44.1358 53.4101 45.5498 52.3027 46.5923C51.1952 47.6348 49.6923 48.2202 48.126 48.2202H5.94043C2.68068 48.22 0.0353838 45.73 0.0351562 42.6616V10.1001H48.126ZM14.9561 21.1733C13.2852 21.1734 11.9298 22.5279 11.9297 24.1987C11.9297 25.8697 13.2851 27.224 14.9561 27.2241C16.6269 27.2239 17.9814 25.8696 17.9814 24.1987C17.9813 22.5279 16.6268 21.1735 14.9561 21.1733ZM39.1201 21.1733C37.4492 21.1734 36.0939 22.5279 36.0938 24.1987C36.0938 25.8697 37.4492 27.224 39.1201 27.2241C40.791 27.2239 42.1455 25.8696 42.1455 24.1987C42.1453 22.5279 40.7909 21.1735 39.1201 21.1733Z" fill="#A4C639"/>
</svg>
