<svg width="23" height="23" viewBox="0 0 23 23" fill="none" xmlns="http://www.w3.org/2000/svg">
<path d="M2.78985 1.02975C2.20524 0.445161 1.25743 0.445161 0.672819 1.02975C0.088227 1.61436 0.088227 2.56217 0.672819 3.14678L9.31733 11.7913L0.672909 20.4357C0.088317 21.0203 0.088317 21.9682 0.672909 22.5527C1.25752 23.1373 2.20533 23.1373 2.78992 22.5527L11.4343 13.9083L20.0788 22.5527C20.6634 23.1373 21.6112 23.1373 22.1958 22.5527C22.7804 21.9682 22.7804 21.0203 22.1958 20.4357L13.5513 11.7913L22.196 3.14678C22.7805 2.56217 22.7805 1.61436 22.196 1.02975C21.6114 0.445161 20.6635 0.445161 20.079 1.02975L11.4343 9.67426L2.78985 1.02975Z" fill="white"/>
</svg>
