<svg width="188" height="49" viewBox="0 0 188 49" fill="none" xmlns="http://www.w3.org/2000/svg">
<path d="M13.8008 15.4551L1.37812 47.2072L1.37812 15.4551L13.8008 15.4551Z" fill="white"/>
<path d="M29.9492 15.4473L1.73594 47.837L15.193 15.4473L29.9492 15.4473Z" fill="white"/>
<path d="M1.37777 14.2734L1.37777 0.94534L19.5938 0.945312L14.4166 14.2734L1.37777 14.2734Z" fill="white"/>
<path d="M30.2789 14.3404L15.5677 14.3404L20.3085 0.952168L30.2789 14.3404Z" fill="white"/>
<path d="M46.958 30.4075C50.06 30.4075 52.546 29.5715 54.416 27.8995C56.308 26.2055 57.254 23.6645 57.254 20.2765C57.254 16.8885 56.187 14.1935 54.053 12.1915C51.941 10.1895 49.323 9.1885 46.199 9.1885C44.197 9.1885 42.459 9.2435 40.985 9.3535V30.1435C42.415 30.3195 44.406 30.4075 46.958 30.4075ZM46.199 7.7365C49.829 7.7365 52.865 8.8695 55.307 11.1355C57.749 13.3795 58.97 16.4375 58.97 20.3095C58.97 22.2675 58.651 24.0055 58.013 25.5235C57.397 27.0195 56.539 28.2185 55.439 29.1205C53.173 30.9465 50.346 31.8595 46.958 31.8595C44.736 31.8595 42.217 31.7385 39.401 31.4965V7.9675C41.645 7.8135 43.911 7.7365 46.199 7.7365ZM65.9142 31.5625V10.1455H67.4322V31.5625H65.9142ZM76.4126 24.1375L73.3436 31.5625H71.7926L80.7686 10.0135H81.6596L90.7016 31.5625H89.0186L85.9166 24.1375H76.4126ZM81.1316 12.4555C80.8016 13.4455 80.5046 14.2705 80.2406 14.9305L76.9406 22.8505H85.3886L82.1216 14.9635C81.6156 13.7315 81.2856 12.8955 81.1316 12.4555ZM104.98 30.4405H104.089L97.852 15.2935C97.588 14.6995 97.324 14.0065 97.06 13.2145C97.06 13.2365 97.038 13.3575 96.994 13.5775C96.972 13.7975 96.939 14.0945 96.895 14.4685C96.851 14.8205 96.807 15.1175 96.763 15.3595L94.288 31.5625H92.803L96.301 10.0135H97.192L103.858 25.8205C104.386 27.1405 104.65 27.8335 104.65 27.8995C104.804 27.4375 105.101 26.7555 105.541 25.8535L112.966 10.0135H113.857L117.124 31.5625H115.54L113.197 15.2935C113.043 14.2155 112.966 13.5005 112.966 13.1485L112.009 15.3265L104.98 30.4405ZM122.794 31.5625V10.1455H124.312V31.5625H122.794ZM132.236 31.5625V10.0135H132.962L147.02 26.1835C147.526 26.7555 147.988 27.3275 148.406 27.8995C148.846 28.4495 149.077 28.7355 149.099 28.7575C149.055 28.2295 149.033 27.1955 149.033 25.6555V10.1455H150.551V31.6945H149.825L135.503 15.2605L133.688 13.0495C133.732 13.4895 133.754 14.5235 133.754 16.1515V31.5625H132.236ZM165.333 30.4405C168.149 30.4405 170.404 29.6815 172.098 28.1635C173.814 26.6455 174.672 24.3575 174.672 21.2995C174.672 18.2415 173.704 15.8105 171.768 14.0065C169.854 12.2025 167.489 11.3005 164.673 11.3005C162.671 11.3005 161.131 11.3445 160.053 11.4325V30.2095C161.373 30.3635 163.133 30.4405 165.333 30.4405ZM164.673 9.9475C167.973 9.9475 170.723 10.9705 172.923 13.0165C175.145 15.0405 176.256 17.8015 176.256 21.2995C176.256 24.7975 175.233 27.4265 173.187 29.1865C171.163 30.9465 168.545 31.8265 165.333 31.8265C163.111 31.8265 160.823 31.7165 158.469 31.4965V10.1455C160.229 10.0135 162.297 9.9475 164.673 9.9475Z" fill="white"/>
</svg>
